<svg width="18" height="20" viewBox="0 0 18 20" fill="none" xmlns="http://www.w3.org/2000/svg">
<path d="M2.75586 13.3276H1.44336C1.24445 13.3276 1.05368 13.4067 0.913029 13.5473C0.772377 13.688 0.693359 13.8787 0.693359 14.0776V18.5776C0.693359 18.7766 0.772377 18.9673 0.913029 19.108C1.05368 19.2486 1.24445 19.3276 1.44336 19.3276H2.75586C3.55151 19.3276 4.31457 19.0116 4.87718 18.449C5.43979 17.8864 5.75586 17.1233 5.75586 16.3276C5.75586 15.532 5.43979 14.7689 4.87718 14.2063C4.31457 13.6437 3.55151 13.3276 2.75586 13.3276ZM2.75586 17.8276H2.19336V14.8276H2.75586C3.15368 14.8276 3.53521 14.9857 3.81652 15.267C4.09782 15.5483 4.25586 15.9298 4.25586 16.3276C4.25586 16.7255 4.09782 17.107 3.81652 17.3883C3.53521 17.6696 3.15368 17.8276 2.75586 17.8276ZM9.50586 13.3276C7.95898 13.3276 6.69336 14.6776 6.69336 16.3276C6.69336 17.9776 7.95898 19.3276 9.50586 19.3276C11.0527 19.3276 12.3184 17.9776 12.3184 16.3276C12.3184 14.6776 11.0527 13.3276 9.50586 13.3276ZM9.50586 17.8276C8.78398 17.8276 8.19336 17.1526 8.19336 16.3276C8.19336 15.5026 8.78398 14.8276 9.50586 14.8276C10.2277 14.8276 10.8184 15.5026 10.8184 16.3276C10.8184 17.1526 10.2277 17.8276 9.50586 17.8276ZM17.7465 17.5651C17.8807 17.7119 17.9512 17.9059 17.9424 18.1045C17.9336 18.3032 17.8463 18.4902 17.6996 18.6245C17.1997 19.0734 16.5527 19.3236 15.8809 19.3276C14.334 19.3276 13.0684 17.9776 13.0684 16.3276C13.0684 14.6776 14.334 13.3276 15.8809 13.3276C16.5527 13.3317 17.1997 13.5819 17.6996 14.0308C17.8463 14.1651 17.9336 14.3521 17.9424 14.5508C17.9512 14.7494 17.8807 14.9434 17.7465 15.0901C17.6813 15.1645 17.6019 15.2251 17.513 15.2683C17.4241 15.3115 17.3274 15.3365 17.2287 15.3417C17.1299 15.3469 17.0311 15.3324 16.9381 15.2988C16.8451 15.2653 16.7598 15.2135 16.6871 15.1464C16.467 14.9442 16.1798 14.8306 15.8809 14.8276C15.159 14.8276 14.5684 15.5026 14.5684 16.3276C14.5684 17.1526 15.159 17.8276 15.8809 17.8276C16.1798 17.8247 16.467 17.7111 16.6871 17.5089C16.7598 17.4418 16.8451 17.39 16.9381 17.3565C17.0311 17.3229 17.1299 17.3084 17.2287 17.3136C17.3274 17.3188 17.4241 17.3438 17.513 17.387C17.6019 17.4302 17.6813 17.4908 17.7465 17.5651ZM1.81836 11.0776C2.01727 11.0776 2.20804 10.9986 2.34869 10.858C2.48934 10.7173 2.56836 10.5266 2.56836 10.3276V2.07765H10.8184V6.57765C10.8184 6.77656 10.8974 6.96733 11.038 7.10798C11.1787 7.24863 11.3694 7.32765 11.5684 7.32765H16.0684V10.3276C16.0684 10.5266 16.1474 10.7173 16.288 10.858C16.4287 10.9986 16.6194 11.0776 16.8184 11.0776C17.0173 11.0776 17.208 10.9986 17.3487 10.858C17.4893 10.7173 17.5684 10.5266 17.5684 10.3276V6.57765C17.5693 6.47794 17.5498 6.3791 17.5111 6.28721C17.4724 6.19531 17.4153 6.1123 17.3434 6.04327L12.1027 0.793274C11.9599 0.653982 11.7679 0.576524 11.5684 0.577649H2.56836C2.17053 0.577649 1.789 0.735684 1.5077 1.01699C1.22639 1.29829 1.06836 1.67982 1.06836 2.07765V10.3276C1.06836 10.5266 1.14738 10.7173 1.28803 10.858C1.42868 10.9986 1.61945 11.0776 1.81836 11.0776ZM12.3184 3.13702L15.009 5.82765H12.3184V3.13702Z" fill="#006AFF"/>
</svg>
