<svg width="18" height="19" viewBox="0 0 18 19" fill="none" xmlns="http://www.w3.org/2000/svg">
<path d="M17.6929 12.9526C17.6929 13.1515 17.6139 13.3423 17.4732 13.483C17.3326 13.6236 17.1418 13.7026 16.9429 13.7026H14.6929V15.2026H16.1929C16.3918 15.2026 16.5826 15.2817 16.7232 15.4223C16.8639 15.563 16.9429 15.7537 16.9429 15.9526C16.9429 16.1515 16.8639 16.3423 16.7232 16.483C16.5826 16.6236 16.3918 16.7026 16.1929 16.7026H14.6929V18.2026C14.6929 18.4015 14.6139 18.5923 14.4732 18.733C14.3325 18.8736 14.1418 18.9526 13.9429 18.9526C13.744 18.9526 13.5532 18.8736 13.4125 18.733C13.2719 18.5923 13.1929 18.4015 13.1929 18.2026V12.9526C13.1929 12.7537 13.2719 12.563 13.4125 12.4223C13.5532 12.2817 13.744 12.2026 13.9429 12.2026H16.9429C17.1418 12.2026 17.3326 12.2817 17.4732 12.4223C17.6139 12.563 17.6929 12.7537 17.6929 12.9526ZM5.31787 14.8276C5.31787 15.5238 5.04131 16.1915 4.54903 16.6838C4.05674 17.1761 3.38906 17.4526 2.69287 17.4526H1.94287V18.2026C1.94287 18.4015 1.86385 18.5923 1.7232 18.733C1.58255 18.8736 1.39178 18.9526 1.19287 18.9526C0.993959 18.9526 0.803193 18.8736 0.662541 18.733C0.521889 18.5923 0.442871 18.4015 0.442871 18.2026V12.9526C0.442871 12.7537 0.521889 12.563 0.662541 12.4223C0.803193 12.2817 0.993959 12.2026 1.19287 12.2026H2.69287C3.38906 12.2026 4.05674 12.4792 4.54903 12.9715C5.04131 13.4638 5.31787 14.1314 5.31787 14.8276ZM3.81787 14.8276C3.81787 14.5293 3.69934 14.2431 3.48837 14.0321C3.27739 13.8212 2.99124 13.7026 2.69287 13.7026H1.94287V15.9526H2.69287C2.99124 15.9526 3.27739 15.8341 3.48837 15.6231C3.69934 15.4122 3.81787 15.126 3.81787 14.8276ZM12.0679 15.5776C12.0679 16.4727 11.7123 17.3312 11.0794 17.9641C10.4464 18.5971 9.58798 18.9526 8.69287 18.9526H7.19287C6.99396 18.9526 6.80319 18.8736 6.66254 18.733C6.52189 18.5923 6.44287 18.4015 6.44287 18.2026V12.9526C6.44287 12.7537 6.52189 12.563 6.66254 12.4223C6.80319 12.2817 6.99396 12.2026 7.19287 12.2026H8.69287C9.58798 12.2026 10.4464 12.5582 11.0794 13.1912C11.7123 13.8241 12.0679 14.6825 12.0679 15.5776ZM10.5679 15.5776C10.5679 15.0804 10.3703 14.6034 10.0187 14.2518C9.66707 13.9002 9.19015 13.7026 8.69287 13.7026H7.94287V17.4526H8.69287C9.19015 17.4526 9.66707 17.2551 10.0187 16.9035C10.3703 16.5518 10.5679 16.0749 10.5679 15.5776ZM0.442871 9.20264V2.45264C0.442871 2.05481 0.600906 1.67328 0.882211 1.39198C1.16352 1.11067 1.54505 0.952637 1.94287 0.952637H10.9429C11.0414 0.952559 11.139 0.971894 11.23 1.00953C11.3211 1.04718 11.4038 1.10239 11.4735 1.17201L16.7235 6.42201C16.7931 6.49171 16.8483 6.57445 16.886 6.6655C16.9236 6.75655 16.9429 6.85412 16.9429 6.95264V9.20264C16.9429 9.40155 16.8639 9.59231 16.7232 9.73297C16.5826 9.87362 16.3918 9.95264 16.1929 9.95264C15.994 9.95264 15.8032 9.87362 15.6625 9.73297C15.5219 9.59231 15.4429 9.40155 15.4429 9.20264V7.70264H10.9429C10.744 7.70264 10.5532 7.62362 10.4125 7.48297C10.2719 7.34231 10.1929 7.15155 10.1929 6.95264V2.45264H1.94287V9.20264C1.94287 9.40155 1.86385 9.59231 1.7232 9.73297C1.58255 9.87362 1.39178 9.95264 1.19287 9.95264C0.993959 9.95264 0.803193 9.87362 0.662541 9.73297C0.521889 9.59231 0.442871 9.40155 0.442871 9.20264ZM11.6929 6.20264H14.3826L11.6929 3.51295V6.20264Z" fill="#E45553"/>
</svg>
