<svg width="31" height="31" viewBox="0 0 31 31" fill="none" xmlns="http://www.w3.org/2000/svg">
<g clip-path="url(#clip0_314_757)">
<rect opacity="0.2" x="-1.8042" y="-1.31836" width="34.0896" height="34.0896" fill="#2B6CB0"/>
<path d="M10.5 15.0625C10.5 14.8409 10.5436 14.6215 10.6285 14.4167C10.7133 14.212 10.8376 14.026 10.9943 13.8693C11.151 13.7126 11.337 13.5883 11.5417 13.5035C11.7465 13.4186 11.9659 13.375 12.1875 13.375C12.4091 13.375 12.6285 13.4186 12.8333 13.5035C13.038 13.5883 13.224 13.7126 13.3807 13.8693C13.5374 14.026 13.6617 14.212 13.7465 14.4167C13.8314 14.6215 13.875 14.8409 13.875 15.0625C13.875 15.5101 13.6972 15.9393 13.3807 16.2557C13.0643 16.5722 12.6351 16.75 12.1875 16.75C11.7399 16.75 11.3107 16.5722 10.9943 16.2557C10.6778 15.9393 10.5 15.5101 10.5 15.0625ZM12.1875 14.5C12.0383 14.5 11.8952 14.5593 11.7898 14.6648C11.6843 14.7702 11.625 14.9133 11.625 15.0625C11.625 15.2117 11.6843 15.3548 11.7898 15.4602C11.8952 15.5657 12.0383 15.625 12.1875 15.625C12.3367 15.625 12.4798 15.5657 12.5852 15.4602C12.6907 15.3548 12.75 15.2117 12.75 15.0625C12.75 14.9133 12.6907 14.7702 12.5852 14.6648C12.4798 14.5593 12.3367 14.5 12.1875 14.5ZM12.1875 17.5C11.7399 17.5 11.3107 17.6778 10.9943 17.9943C10.6778 18.3107 10.5 18.7399 10.5 19.1875C10.5 19.6351 10.6778 20.0643 10.9943 20.3807C11.3107 20.6972 11.7399 20.875 12.1875 20.875C12.6351 20.875 13.0643 20.6972 13.3807 20.3807C13.6972 20.0643 13.875 19.6351 13.875 19.1875C13.875 18.7399 13.6972 18.3107 13.3807 17.9943C13.0643 17.6778 12.6351 17.5 12.1875 17.5ZM11.625 19.1875C11.625 19.0383 11.6843 18.8952 11.7898 18.7898C11.8952 18.6843 12.0383 18.625 12.1875 18.625C12.3367 18.625 12.4798 18.6843 12.5852 18.7898C12.6907 18.8952 12.75 19.0383 12.75 19.1875C12.75 19.3367 12.6907 19.4798 12.5852 19.5852C12.4798 19.6907 12.3367 19.75 12.1875 19.75C12.0383 19.75 11.8952 19.6907 11.7898 19.5852C11.6843 19.4798 11.625 19.3367 11.625 19.1875ZM15 15.0625C15 14.9133 15.0593 14.7702 15.1648 14.6648C15.2702 14.5593 15.4133 14.5 15.5625 14.5H18.9375C19.0867 14.5 19.2298 14.5593 19.3352 14.6648C19.4407 14.7702 19.5 14.9133 19.5 15.0625C19.5 15.2117 19.4407 15.3548 19.3352 15.4602C19.2298 15.5657 19.0867 15.625 18.9375 15.625H15.5625C15.4133 15.625 15.2702 15.5657 15.1648 15.4602C15.0593 15.3548 15 15.2117 15 15.0625ZM15.5625 18.625C15.4133 18.625 15.2702 18.6843 15.1648 18.7898C15.0593 18.8952 15 19.0383 15 19.1875C15 19.3367 15.0593 19.4798 15.1648 19.5852C15.2702 19.6907 15.4133 19.75 15.5625 19.75H18.9375C19.0867 19.75 19.2298 19.6907 19.3352 19.5852C19.4407 19.4798 19.5 19.3367 19.5 19.1875C19.5 19.0383 19.4407 18.8952 19.3352 18.7898C19.2298 18.6843 19.0867 18.625 18.9375 18.625H15.5625ZM10.5 12.0625C10.5 11.9133 10.5593 11.7702 10.6648 11.6648C10.7702 11.5593 10.9133 11.5 11.0625 11.5H18.9375C19.0867 11.5 19.2298 11.5593 19.3352 11.6648C19.4407 11.7702 19.5 11.9133 19.5 12.0625C19.5 12.2117 19.4407 12.3548 19.3352 12.4602C19.2298 12.5657 19.0867 12.625 18.9375 12.625H11.0625C10.9133 12.625 10.7702 12.5657 10.6648 12.4602C10.5593 12.3548 10.5 12.2117 10.5 12.0625ZM10.6875 9.25C10.041 9.25 9.42105 9.50681 8.96393 9.96393C8.50681 10.421 8.25 11.041 8.25 11.6875V20.3125C8.25 20.959 8.50681 21.579 8.96393 22.0361C9.42105 22.4932 10.041 22.75 10.6875 22.75H19.3125C19.959 22.75 20.579 22.4932 21.0361 22.0361C21.4932 21.579 21.75 20.959 21.75 20.3125V11.6875C21.75 11.041 21.4932 10.421 21.0361 9.96393C20.579 9.50681 19.959 9.25 19.3125 9.25H10.6875ZM9.375 11.6875C9.375 10.963 9.963 10.375 10.6875 10.375H19.3125C20.037 10.375 20.625 10.963 20.625 11.6875V20.3125C20.625 20.6606 20.4867 20.9944 20.2406 21.2406C19.9944 21.4867 19.6606 21.625 19.3125 21.625H10.6875C10.3394 21.625 10.0056 21.4867 9.75942 21.2406C9.51328 20.9944 9.375 20.6606 9.375 20.3125V11.6875Z" fill="#34465D"/>
</g>
<defs>
<clipPath id="clip0_314_757">
<rect x="0.0898438" y="0.575439" width="30.3018" height="30.3018" rx="15.1509" fill="white"/>
</clipPath>
</defs>
</svg>
