<svg width="18" height="20" viewBox="0 0 18 20" fill="none" xmlns="http://www.w3.org/2000/svg">
<path d="M11.8179 18.5308C11.8179 18.7297 11.7389 18.9205 11.5982 19.0611C11.4575 19.2018 11.2668 19.2808 11.0679 19.2808H8.44287C8.24396 19.2808 8.05319 19.2018 7.91254 19.0611C7.77189 18.9205 7.69287 18.7297 7.69287 18.5308V14.0308C7.69287 13.8319 7.77189 13.6411 7.91254 13.5004C8.05319 13.3598 8.24396 13.2808 8.44287 13.2808C8.64178 13.2808 8.83255 13.3598 8.9732 13.5004C9.11385 13.6411 9.19287 13.8319 9.19287 14.0308V17.7808H11.0679C11.2668 17.7808 11.4575 17.8598 11.5982 18.0004C11.7389 18.1411 11.8179 18.3319 11.8179 18.5308ZM5.89287 13.4308C5.81408 13.3717 5.72442 13.3287 5.62901 13.3042C5.5336 13.2798 5.43431 13.2744 5.33681 13.2883C5.2393 13.3022 5.1455 13.3352 5.06075 13.3854C4.976 13.4356 4.90197 13.502 4.84287 13.5808L3.75537 15.0339L2.66787 13.5808C2.54852 13.4216 2.37085 13.3164 2.17394 13.2883C1.97702 13.2602 1.777 13.3114 1.61787 13.4308C1.45874 13.5501 1.35354 13.7278 1.32541 13.9247C1.29728 14.1216 1.34852 14.3216 1.46787 14.4808L2.81787 16.2808L1.46787 18.0808C1.34852 18.2399 1.29728 18.4399 1.32541 18.6368C1.35354 18.8338 1.45874 19.0114 1.61787 19.1308C1.74669 19.23 1.90526 19.2829 2.06787 19.2808C2.1843 19.2808 2.29914 19.2537 2.40328 19.2016C2.50742 19.1495 2.59801 19.0739 2.66787 18.9808L3.75537 17.5276L4.84287 18.9808C4.91273 19.0739 5.00332 19.1495 5.10746 19.2016C5.2116 19.2537 5.32644 19.2808 5.44287 19.2808C5.60548 19.2829 5.76405 19.23 5.89287 19.1308C6.052 19.0114 6.1572 18.8338 6.18533 18.6368C6.21346 18.4399 6.16222 18.2399 6.04287 18.0808L4.69287 16.2808L6.04287 14.4808C6.16222 14.3216 6.21346 14.1216 6.18533 13.9247C6.1572 13.7278 6.052 13.5501 5.89287 13.4308ZM17.4429 6.54952V10.2808C17.4429 10.4797 17.3639 10.6705 17.2232 10.8111C17.0826 10.9518 16.8918 11.0308 16.6929 11.0308C16.494 11.0308 16.3032 10.9518 16.1625 10.8111C16.0219 10.6705 15.9429 10.4797 15.9429 10.2808V7.28077H11.4429C11.244 7.28077 11.0532 7.20176 10.9125 7.0611C10.7719 6.92045 10.6929 6.72969 10.6929 6.53077V2.03077H2.44287V10.2808C2.44287 10.4797 2.36385 10.6705 2.2232 10.8111C2.08255 10.9518 1.89178 11.0308 1.69287 11.0308C1.49396 11.0308 1.30319 10.9518 1.16254 10.8111C1.02189 10.6705 0.942871 10.4797 0.942871 10.2808V2.03077C0.942871 1.63295 1.10091 1.25142 1.38221 0.970114C1.66352 0.688809 2.04505 0.530774 2.44287 0.530774H11.4429C11.6424 0.529649 11.8344 0.607107 11.9772 0.746399L17.2179 5.9964C17.2898 6.06542 17.3469 6.14844 17.3856 6.24033C17.4243 6.33223 17.4438 6.43107 17.4429 6.53077V6.54952ZM12.1929 5.78077H14.8835L12.1929 3.09015V5.78077ZM15.3522 15.512C15.0616 15.437 14.546 15.2964 14.4429 15.1745V15.1558C14.4429 14.8464 14.6679 14.687 15.0991 14.687C15.4341 14.6938 15.7599 14.7981 16.0366 14.987H16.0272C16.1633 15.0951 16.3316 15.1545 16.5054 15.1558C16.7043 15.1558 16.895 15.0768 17.0357 14.9361C17.1764 14.7955 17.2554 14.6047 17.2554 14.4058C17.2572 14.2959 17.2336 14.1872 17.1865 14.088C17.1393 13.9888 17.0698 13.9018 16.9835 13.8339C16.4426 13.4189 15.7809 13.1917 15.0991 13.187C13.8335 13.187 12.9429 13.9933 12.9429 15.1558C12.9429 16.3183 14.1616 16.7495 14.9679 16.9651C15.2866 17.0495 15.6241 17.1339 15.8304 17.2558C16.0366 17.3776 15.9429 17.3495 15.9429 17.4058C15.9429 17.462 15.9429 17.8745 15.0991 17.8745C14.7641 17.8677 14.4384 17.7635 14.1616 17.5745H14.171C14.0349 17.4665 13.8666 17.4071 13.6929 17.4058C13.494 17.4058 13.3032 17.4848 13.1625 17.6254C13.0219 17.7661 12.9429 17.9569 12.9429 18.1558C12.941 18.2656 12.9646 18.3744 13.0118 18.4736C13.059 18.5728 13.1284 18.6597 13.2147 18.7276C13.7557 19.1427 14.4173 19.3698 15.0991 19.3745C16.5616 19.3745 17.4429 18.6339 17.4429 17.4058C17.4429 16.1776 16.1304 15.7183 15.3522 15.512Z" fill="#569C2B"/>
</svg>
