<svg width="32" height="32" viewBox="0 0 32 32" fill="none" xmlns="http://www.w3.org/2000/svg">
<path d="M15.9999 19.1288C17.7279 19.1288 19.1287 17.728 19.1287 16C19.1287 14.272 17.7279 12.8712 15.9999 12.8712C14.2719 12.8712 12.8711 14.272 12.8711 16C12.8711 17.728 14.2719 19.1288 15.9999 19.1288Z" stroke="#34465D" stroke-width="2.66667" stroke-linecap="round" stroke-linejoin="round"/>
<path d="M24.0727 19.2727C23.9275 19.6018 23.8842 19.9668 23.9484 20.3206C24.0125 20.6745 24.1812 21.0011 24.4327 21.2582L24.4982 21.3236C24.701 21.5263 24.862 21.7669 24.9718 22.0318C25.0816 22.2966 25.1381 22.5805 25.1381 22.8673C25.1381 23.154 25.0816 23.4379 24.9718 23.7028C24.862 23.9676 24.701 24.2083 24.4982 24.4109C24.2956 24.6138 24.0549 24.7747 23.7901 24.8845C23.5252 24.9943 23.2413 25.0508 22.9545 25.0508C22.6678 25.0508 22.3839 24.9943 22.119 24.8845C21.8542 24.7747 21.6135 24.6138 21.4109 24.4109L21.3455 24.3455C21.0884 24.094 20.7618 23.9253 20.4079 23.8611C20.054 23.7969 19.689 23.8402 19.36 23.9855C19.0373 24.1237 18.7622 24.3534 18.5683 24.646C18.3745 24.9387 18.2705 25.2817 18.2691 25.6327V25.8182C18.2691 26.3968 18.0392 26.9518 17.6301 27.361C17.2209 27.7701 16.6659 28 16.0873 28C15.5086 28 14.9537 27.7701 14.5445 27.361C14.1353 26.9518 13.9055 26.3968 13.9055 25.8182V25.72C13.897 25.3589 13.7801 25.0087 13.57 24.7149C13.3599 24.4212 13.0663 24.1974 12.7273 24.0727C12.3982 23.9275 12.0332 23.8842 11.6794 23.9484C11.3255 24.0125 10.9989 24.1812 10.7418 24.4327L10.6764 24.4982C10.4737 24.701 10.2331 24.862 9.96823 24.9718C9.70336 25.0816 9.41945 25.1381 9.13273 25.1381C8.846 25.1381 8.56209 25.0816 8.29722 24.9718C8.03235 24.862 7.79172 24.701 7.58909 24.4982C7.38623 24.2956 7.2253 24.0549 7.11551 23.7901C7.00571 23.5252 6.94919 23.2413 6.94919 22.9545C6.94919 22.6678 7.00571 22.3839 7.11551 22.119C7.2253 21.8542 7.38623 21.6135 7.58909 21.4109L7.65455 21.3455C7.90604 21.0884 8.07475 20.7618 8.13891 20.4079C8.20308 20.054 8.15976 19.689 8.01455 19.36C7.87626 19.0373 7.64664 18.7622 7.35396 18.5683C7.06128 18.3745 6.71831 18.2705 6.36727 18.2691H6.18182C5.60316 18.2691 5.04821 18.0392 4.63904 17.6301C4.22987 17.2209 4 16.6659 4 16.0873C4 15.5086 4.22987 14.9537 4.63904 14.5445C5.04821 14.1353 5.60316 13.9055 6.18182 13.9055H6.28C6.64108 13.897 6.99128 13.7801 7.28505 13.57C7.57883 13.3599 7.8026 13.0663 7.92727 12.7273C8.07249 12.3982 8.11581 12.0332 8.05164 11.6794C7.98748 11.3255 7.81877 10.9989 7.56727 10.7418L7.50182 10.6764C7.29896 10.4737 7.13803 10.2331 7.02823 9.96823C6.91843 9.70336 6.86192 9.41945 6.86192 9.13273C6.86192 8.846 6.91843 8.56209 7.02823 8.29722C7.13803 8.03235 7.29896 7.79172 7.50182 7.58909C7.70445 7.38623 7.94508 7.2253 8.20995 7.11551C8.47482 7.00571 8.75873 6.94919 9.04545 6.94919C9.33218 6.94919 9.61609 7.00571 9.88096 7.11551C10.1458 7.2253 10.3865 7.38623 10.5891 7.58909L10.6545 7.65455C10.9117 7.90604 11.2382 8.07475 11.5921 8.13891C11.946 8.20308 12.311 8.15976 12.64 8.01455H12.7273C13.0499 7.87626 13.3251 7.64664 13.5189 7.35396C13.7128 7.06128 13.8168 6.71831 13.8182 6.36727V6.18182C13.8182 5.60316 14.0481 5.04821 14.4572 4.63904C14.8664 4.22987 15.4213 4 16 4C16.5787 4 17.1336 4.22987 17.5428 4.63904C17.9519 5.04821 18.1818 5.60316 18.1818 6.18182V6.28C18.1832 6.63104 18.2872 6.97401 18.4811 7.26669C18.6749 7.55937 18.9501 7.78899 19.2727 7.92727C19.6018 8.07249 19.9668 8.11581 20.3206 8.05164C20.6745 7.98748 21.0011 7.81877 21.2582 7.56727L21.3236 7.50182C21.5263 7.29896 21.7669 7.13803 22.0318 7.02823C22.2966 6.91843 22.5805 6.86192 22.8673 6.86192C23.154 6.86192 23.4379 6.91843 23.7028 7.02823C23.9676 7.13803 24.2083 7.29896 24.4109 7.50182C24.6138 7.70445 24.7747 7.94508 24.8845 8.20995C24.9943 8.47482 25.0508 8.75873 25.0508 9.04545C25.0508 9.33218 24.9943 9.61609 24.8845 9.88096C24.7747 10.1458 24.6138 10.3865 24.4109 10.5891L24.3455 10.6545C24.094 10.9117 23.9253 11.2382 23.8611 11.5921C23.7969 11.946 23.8402 12.311 23.9855 12.64V12.7273C24.1237 13.0499 24.3534 13.3251 24.646 13.5189C24.9387 13.7128 25.2817 13.8168 25.6327 13.8182H25.8182C26.3968 13.8182 26.9518 14.0481 27.361 14.4572C27.7701 14.8664 28 15.4213 28 16C28 16.5787 27.7701 17.1336 27.361 17.5428C26.9518 17.9519 26.3968 18.1818 25.8182 18.1818H25.72C25.369 18.1832 25.026 18.2872 24.7333 18.4811C24.4406 18.6749 24.211 18.9501 24.0727 19.2727V19.2727Z" stroke="#34465D" stroke-width="2.66667" stroke-linecap="round" stroke-linejoin="round"/>
</svg>
