<svg width="60" height="60" viewBox="0 0 60 60" fill="none" xmlns="http://www.w3.org/2000/svg">
<g clip-path="url(#clip0_178_531)">
<g opacity="0.25">
<mask id="mask0_178_531" style="mask-type:luminance" maskUnits="userSpaceOnUse" x="0" y="0" width="60" height="55">
<path d="M60 0H0V54.9407H60V0Z" fill="white"/>
</mask>
<g mask="url(#mask0_178_531)">
<path d="M56.9749 45.7905C65.0884 34.1106 55.4123 13.7549 45.025 7.1541L38.1635 2.79639C28.6477 -3.24116 14.6644 0.82999 6.98158 11.8873L4.90813 14.8715C-2.76466 25.9288 -1.27218 39.832 8.24368 45.8794L15.1051 50.2371C25.4924 56.8181 48.8714 57.4604 56.9849 45.7806" fill="#4B9DDA"/>
</g>
</g>
<path d="M4.98844 16.0079C4.59779 15.4051 4.20714 14.7925 4.04688 14.0909C3.98677 13.834 3.97676 13.5375 4.16708 13.3597C4.29729 13.2411 4.49763 13.2114 4.67793 13.1818C5.57943 13.0533 6.47092 12.8261 7.31232 12.4901C7.71299 12.332 8.12367 12.1344 8.37409 11.7885C8.71465 11.3142 8.67459 10.6917 8.61449 10.1186C8.29395 7.02567 7.63285 3.96243 6.67125 1.00788C7.39245 0.691679 8.2639 0.859663 8.93502 1.2648C9.60614 1.66994 10.127 2.28259 10.6078 2.90512C12.4609 5.35571 13.8532 8.16203 15.9968 10.3755C16.4275 10.8201 16.8783 11.2352 17.2389 11.7292C17.92 12.668 18.2205 13.8241 18.4108 14.9703C19.102 19.2095 18.4409 23.666 16.5277 27.5296C16.3674 27.8458 16.1871 28.1818 15.8766 28.3597C15.1654 28.7846 14.294 28.2016 13.6829 27.6482C12.0502 26.1561 10.0068 24.5355 9.02517 22.5395C7.9033 20.2569 6.37075 18.1423 4.98844 15.998" fill="white"/>
<path d="M13.3022 22.9249H8.47412V42.1541L13.4825 43.4288L23.1285 42.6976L23.6895 22.3814L13.3022 22.9249Z" fill="white"/>
<mask id="mask1_178_531" style="mask-type:luminance" maskUnits="userSpaceOnUse" x="2" y="0" width="47" height="60">
<path d="M48.2 0.444702H2.17334V60H48.2V0.444702Z" fill="white"/>
</mask>
<g mask="url(#mask1_178_531)">
<path d="M2.35352 13.0435L8.47372 22.9249L9.77589 22.7471L4.01629 13.7747L8.1031 11.9467L6.99125 11.0277L2.35352 13.0435Z" fill="white"/>
<path d="M14.9649 22.5593L27.9565 22.421L22.2069 11.2056L21.1051 11.1166L22.0166 9.74311L13.2921 9.3775V11.5712L8.47405 3.51781L8.07339 3.62651C8.98491 2.89528 8.66437 1.99608 6.43065 2.24311L9.02497 1.32414C9.02497 1.32414 6.24033 -0.138312 4.75786 1.14627C3.44567 2.27276 3.00494 4.25892 4.95819 4.45655L3.64601 4.8024L13.2921 19.2589V22.9249L15.035 20.2965L14.9649 22.5593Z" fill="white"/>
<path d="M2.34375 13.0435L4.01654 13.7747M4.01654 13.7747L8.10335 11.9467L6.9915 11.0277L2.35377 13.0435L8.46395 22.9249L9.76612 22.7471L4.01654 13.7747ZM13.292 9.3775L15.3354 10.6621M13.292 9.3775V22.9249M13.292 9.3775L22.0165 9.74311M15.3354 10.6621L22.2069 11.2154M15.3354 10.6621L14.9648 22.5593M9.77614 1.8775L14.2336 8.83402M9.02489 1.32414C9.02489 1.32414 6.24024 -0.138312 4.75777 1.14627C3.2753 2.43086 2.90469 4.81228 5.86963 4.43679C8.84458 4.07117 9.76612 1.8775 6.43056 2.24311M3.64592 4.8024L13.292 19.2688V11.5811L8.47397 3.5277M13.4923 24.3973L13.8629 42.1542M8.48398 22.9348V42.1542L13.4923 43.4388L23.1384 42.7075L23.6993 22.3814L13.302 22.9348H8.47397H8.48398Z" stroke="#1A1718" stroke-width="0.190317" stroke-linecap="round" stroke-linejoin="round"/>
</g>
<path d="M34.187 19.9506C37.9232 20.7213 37.8832 24.8913 37.2621 27.6779C37.0418 28.6759 36.6912 29.6443 36.2204 30.5632C36.1403 30.5237 36.1202 30.5336 36.0201 30.5929C35.9399 29.1008 36.1903 27.6581 36.2204 26.2154C35.3489 25.3755 33.8264 23.1719 34.6077 21.9565" fill="white"/>
<path d="M34.187 19.9506C37.9232 20.7213 37.8832 24.8913 37.2621 27.6779C37.0418 28.6759 36.6912 29.6443 36.2204 30.5632C36.1403 30.5237 36.1202 30.5336 36.0201 30.5929C35.9399 29.1008 36.1903 27.6581 36.2204 26.2154C35.3489 25.3755 33.8264 23.1719 34.6077 21.9565" stroke="#1A1718" stroke-width="0.190317" stroke-linecap="round" stroke-linejoin="round"/>
<path d="M34.0766 47.3321C35.1484 49.249 34.3771 51.4328 34.6075 53.2807C34.7377 54.3479 34.9481 54.7431 35.6793 55.6819C36.4305 56.6502 37.7227 58.004 37.0115 58.3894C35.8496 58.8439 34.327 58.8637 33.4456 58.4783C32.0833 57.8755 34.0866 56.423 34.0365 55.5237C33.8462 52.4407 31.7127 49.6641 31.7427 46.5415C31.7628 46.7392 31.7427 46.9368 31.6826 47.1245" fill="white"/>
<path d="M34.0766 47.3321C35.1484 49.249 34.3771 51.4328 34.6075 53.2807C34.7377 54.3479 34.9481 54.7431 35.6793 55.6819C36.4305 56.6502 37.7227 58.004 37.0115 58.3894C35.8496 58.8439 34.327 58.8637 33.4456 58.4783C32.0833 57.8755 34.0866 56.423 34.0365 55.5237C33.8462 52.4407 31.7127 49.6641 31.7427 46.5415C31.7628 46.7392 31.7427 46.9368 31.6826 47.1245" stroke="#1A1718" stroke-width="0.190317" stroke-linecap="round" stroke-linejoin="round"/>
<path d="M28.2069 5.96837C32.7244 5.4743 35.8196 9.57509 34.898 13.9526C34.5374 15.6423 34.3271 20.0692 26.7745 19.5059C24.7311 19.3577 21.706 18.0435 22.1468 15.0593" fill="white"/>
<path d="M28.2069 5.96837C32.7244 5.4743 35.8196 9.57509 34.898 13.9526C34.5374 15.6423 34.3271 20.0692 26.7745 19.5059C24.7311 19.3577 21.706 18.0435 22.1468 15.0593" stroke="#1A1718" stroke-width="0.190317" stroke-linecap="round" stroke-linejoin="round"/>
<path d="M32.6042 18.3696C36.4606 19.4269 36.5608 25.1285 33.5858 28.4289C30.711 31.6107 23.4489 32.2233 21.7361 27.4407C20.9047 25.1285 21.7561 22.2727 23.5591 20.919C25.4423 19.5257 30.3404 17.7569 32.6042 18.3696Z" fill="white"/>
<path d="M32.6042 18.3696C36.4606 19.4269 36.5608 25.1285 33.5858 28.4289C30.711 31.6107 23.4489 32.2233 21.7361 27.4407C20.9047 25.1285 21.7561 22.2727 23.5591 20.919C25.4423 19.5257 30.3404 17.7569 32.6042 18.3696Z" stroke="#1A1718" stroke-width="0.190317" stroke-linecap="round" stroke-linejoin="round"/>
<path d="M33.546 27.4407C36.6411 29.753 38.8248 32.5396 39.8465 36.2945C41.0785 40.8103 40.788 46.9664 36.6611 50.0198C32.0835 53.3992 26.1236 50.3656 22.9583 46.5613C19.7029 42.6483 17.8197 36.5119 20.4141 31.7886C22.4975 27.9941 26.6645 27.2135 30.6812 27.2135C31.172 27.2135 31.6628 27.2234 32.1536 27.2332" fill="white"/>
<path d="M33.546 27.4407C36.6411 29.753 38.8248 32.5396 39.8465 36.2945C41.0785 40.8103 40.788 46.9664 36.6612 50.0198C32.0835 53.3992 26.1236 50.3656 22.9583 46.5613C19.7029 42.6483 17.8197 36.5119 20.4141 31.7886C22.4975 27.9941 26.6645 27.2135 30.6812 27.2135C31.172 27.2135 31.6628 27.2234 32.1536 27.2332" stroke="#1A1718" stroke-width="0.190317" stroke-linecap="round" stroke-linejoin="round"/>
<mask id="mask2_178_531" style="mask-type:luminance" maskUnits="userSpaceOnUse" x="25" y="29" width="15" height="22">
<path d="M39.6663 29.664H25.062V50.4842H39.6663V29.664Z" fill="white"/>
</mask>
<g mask="url(#mask2_178_531)">
<path d="M32.9153 29.7134C36.0806 30.9486 38.4345 33.6265 39.2158 36.8972C40.3377 41.0869 39.5463 47.9842 34.7484 49.9901C32.3944 50.9782 29.0789 50.494 26.6649 48.5474C25.1223 47.3023 24.2008 45.2075 26.2442 44.9308C28.4679 44.6245 31.2024 46.2747 33.7266 46.0968C34.5981 46.0375 38.0839 44.9209 36.351 43.2905C35.139 42.1344 30.952 43.1225 29.73 42.915C28.1674 42.6482 25.8736 41.1363 27.6265 39.9506C29.2091 38.8834 32.1941 40.0691 34.2976 40.0494C35.8402 40.0395 38.715 38.9921 37.6632 37.1442C36.7517 35.5336 33.5163 36.8774 32.5447 37.0652C31.6832 37.2431 27.6565 38.0533 27.4362 36.413C27.2659 35.1482 30.8018 34.9308 31.7033 34.7431C32.6448 34.5553 35.8802 33.8933 34.9687 32.5988C33.7867 30.9091 27.4262 33.9031 25.5831 32.2826C24.5514 31.3735 26.4946 31.3834 27.2058 31.4229C28.7584 31.5019 30.912 31.9071 32.124 30.998C32.5347 30.6521 32.8151 30.1778 32.9453 29.664C33.0155 29.7035 33.0856 29.7431 33.1457 29.7826" fill="#FDB813"/>
</g>
<mask id="mask3_178_531" style="mask-type:luminance" maskUnits="userSpaceOnUse" x="2" y="0" width="47" height="60">
<path d="M48.2 0.444702H2.17334V60H48.2V0.444702Z" fill="white"/>
</mask>
<g mask="url(#mask3_178_531)">
<path d="M29.1886 42.085C29.4991 43.5475 28.6477 44.9309 28.3372 46.2846C27.9465 47.9744 27.7061 48.4981 27.9966 50.1483C28.3071 51.9072 28.1369 55.4052 28.3672 57.1048C28.5576 58.508 30.7212 58.9724 29.0584 59.6344C27.7662 60.1483 22.798 59.5554 21.5859 58.9526C22.3572 58.004 23.4691 57.3914 24.6811 57.2135C25.9232 56.9862 26.2838 58.9526 27.035 58.1127C27.6861 57.3815 26.5743 54.3479 26.444 53.3499C26.2838 52.174 25.843 50.8005 26.1435 49.6048C26.3238 48.9032 26.6544 48.6562 26.6945 47.8854C26.7245 47.2036 26.444 46.4427 26.434 45.751C26.414 44.3281 26.6844 41.502 28.0567 41.0574C28.207 41.0771 28.0968 41.1858 28.1369 41.3637" fill="white"/>
<path d="M29.1886 42.085C29.4991 43.5475 28.6477 44.9309 28.3372 46.2846C27.9465 47.9744 27.7061 48.4981 27.9966 50.1483C28.3071 51.9072 28.1369 55.4052 28.3672 57.1048C28.5576 58.508 30.7212 58.9724 29.0584 59.6344C27.7662 60.1483 22.798 59.5554 21.5859 58.9526C22.3572 58.004 23.4691 57.3914 24.6811 57.2135C25.9232 56.9862 26.2838 58.9526 27.035 58.1127C27.6861 57.3815 26.5743 54.3479 26.444 53.3499C26.2838 52.174 25.843 50.8005 26.1435 49.6048C26.3238 48.9032 26.6544 48.6562 26.6945 47.8854C26.7245 47.2036 26.444 46.4427 26.434 45.751C26.414 44.3281 26.6844 41.502 28.0567 41.0574C28.207 41.0771 28.0968 41.1858 28.1369 41.3637" stroke="#1A1718" stroke-width="0.190317" stroke-linecap="round" stroke-linejoin="round"/>
<path d="M34.4678 20.3261C38.2441 21.8973 41.6798 24.0613 44.3643 28.4585C46.3476 31.6502 47.5896 35.2372 47.9803 38.9625C48.2107 41.5218 47.81 45.0494 45.6464 45.1779C43.5529 45.2965 41.6597 42.2629 40.6981 39.8419C40.4477 39.2095 39.0254 34.9901 40.3476 35.2767C41.7098 35.5731 42.0905 41.0376 42.0804 42.4012C42.0704 44.8222 41.3592 48.1226 39.2958 47.3913C36.9619 46.5613 35.4494 42.0652 34.7082 39.0712C33.7866 35.1186 33.5562 31.0475 34.017 27.0158C34.1072 26.1364 34.2173 25.2668 34.3275 24.3874" fill="white"/>
<path d="M34.4678 20.3261C38.2441 21.8973 41.6798 24.0613 44.3643 28.4585C46.3476 31.6502 47.5896 35.2372 47.9803 38.9625C48.2107 41.5218 47.81 45.0494 45.6464 45.1779C43.5529 45.2965 41.6597 42.2629 40.6981 39.8419C40.4477 39.2095 39.0254 34.9901 40.3476 35.2767C41.7098 35.5731 42.0905 41.0376 42.0804 42.4012C42.0704 44.8222 41.3592 48.1226 39.2958 47.3913C36.9619 46.5613 35.4494 42.0652 34.7082 39.0712C33.7866 35.1186 33.5562 31.0475 34.017 27.0158C34.1072 26.1364 34.2173 25.2668 34.3275 24.3874" stroke="#1A1718" stroke-width="0.190317" stroke-linecap="round" stroke-linejoin="round"/>
</g>
<path d="M24.2704 16.4229C23.5292 16.6996 22.788 16.9664 22.2471 16.2253L24.2704 16.4229Z" fill="white"/>
<path d="M18.9116 6.90714C20.1938 6.97631 21.7964 4.60477 22.5176 4.49607C25.5126 4.07117 28.3974 4.83204 29.2188 8.71544C29.7397 11.1759 29.0185 14.3775 26.4141 15.3854C23.95 16.334 21.5059 14.6245 21.9066 11.9961C22.3273 9.20951 24.9417 7.1443 27.1053 5.60279M24.2806 16.423C23.5393 16.6996 22.7981 16.9664 22.2572 16.2253" stroke="#1A1718" stroke-width="0.190317" stroke-linecap="round" stroke-linejoin="round"/>
<path d="M28.0466 6.10672C29.2185 8.74506 30.2502 13.2806 26.9447 15.0494C22.9581 17.1838 20.504 13.0534 23.2786 9.53557C24.4806 8.01383 26.2937 7.01581 28.0265 6.1166C28.0366 6.25494 28.0466 6.3834 28.0466 6.52174" fill="#FDB813"/>
<path d="M38.6845 22.9546C43.4424 27.164 49.6929 34.7629 46.9783 41.6206C45.2955 45.8893 41.3189 39.7826 40.4174 37.915C39.7463 36.5316 39.4658 35.3755 40.6778 34.2886C41.6394 33.4289 42.6411 33.3202 42.3306 31.7984C42.0802 30.5633 35.5393 23.6265 38.6745 23.3795" fill="#FDB813"/>
<path d="M23.1788 21.2352C21.2255 22.9941 20.875 26.5316 20.4843 29.1502C18.7714 28.8735 14.7748 27.332 13.6229 27.5C13.6229 27.5 12.0502 23.5178 10.0068 25.168L10.4275 27.0949L13.3524 28.6067C14.6546 29.5257 20.5043 32.4012 20.5444 30.9881C20.9551 30.2371 21.3357 29.4565 21.6663 28.666C22.1371 27.6976 22.708 27.1541 22.9284 26.0968C23.1287 25.1284 22.708 23.2213 23.0285 22.668" fill="white"/>
<path d="M23.1788 21.2352C21.2255 22.9941 20.8749 26.5316 20.4843 29.1502C18.7714 28.8735 14.7748 27.332 13.6229 27.5C13.6229 27.5 12.0502 23.5178 10.0068 25.168L10.4275 27.0949L13.3524 28.6067C14.6546 29.5257 20.5043 32.4012 20.5444 30.9881C20.9551 30.2371 21.3357 29.4565 21.6663 28.666C22.1371 27.6976 22.708 27.1541 22.9284 26.0968C23.1287 25.1284 22.708 23.2213 23.0285 22.668" stroke="#1A1718" stroke-width="0.190317" stroke-linecap="round" stroke-linejoin="round"/>
<path d="M28.2266 20.998C22.5271 25.4644 19.8827 31.9565 20.0731 39.4961C20.1632 43.1028 21.0046 47.0751 23.4687 49.7332C25.3518 51.7589 28.3168 52.6779 30.3201 50.3063C32.4236 47.8261 32.3535 43.4882 31.3018 40.5435C30.6306 38.6561 28.5973 36.5712 28.1766 39.7925C27.816 42.5 29.1181 46.5415 31.3418 48.0731C33.866 49.8024 35.4988 46.8973 36.0096 44.5751C37.5321 37.6186 33.866 30.8498 30.9311 24.9309C30.5605 24.1799 30.1899 23.4388 29.8193 22.6977" fill="white"/>
<path d="M28.2266 20.998C22.5271 25.4645 19.8827 31.9565 20.0731 39.4961C20.1632 43.1028 21.0046 47.0751 23.4687 49.7332C25.3518 51.7589 28.3168 52.6779 30.3201 50.3063C32.4236 47.8261 32.3535 43.4882 31.3018 40.5435C30.6306 38.6561 28.5973 36.5712 28.1766 39.7925C27.816 42.5 29.1181 46.5415 31.3418 48.0731C33.866 49.8024 35.4988 46.8973 36.0096 44.5751C37.5321 37.6186 33.866 30.8498 30.9311 24.9309C30.5605 24.1799 30.1899 23.4388 29.8193 22.6977" stroke="#1A1718" stroke-width="0.190317" stroke-linecap="round" stroke-linejoin="round"/>
<path d="M30.5308 25.7806C31.9833 29.0316 33.4858 32.2233 34.2771 35.7411C34.9482 38.7747 35.8497 43.1126 34.5575 46.0869C33.7562 47.9348 32.2938 47.8755 30.641 47.3913C27.055 55.1581 20.6744 46.0968 20.9148 40.8201C21.1051 36.6107 24.4106 39.3873 26.7045 38.8537C30.5208 37.9545 29.3789 33.2312 28.4874 30.5632C27.9866 29.0612 27.2353 26.3933 28.3372 24.9506C29.429 23.5276 30.3505 25.2174 30.9315 26.3043" fill="#FDB813"/>
<path d="M30.271 5.93876C30.7117 5.23718 31.9438 3.56722 32.8954 3.85378C33.6667 4.09093 34.9187 5.60279 35.3294 6.28461" stroke="#1A1718" stroke-width="0.190317" stroke-linecap="round" stroke-linejoin="round"/>
<mask id="mask4_178_531" style="mask-type:luminance" maskUnits="userSpaceOnUse" x="9" y="33" width="4" height="9">
<path d="M12.2304 33.4091H9.09521V41.7885H12.2304V33.4091Z" fill="white"/>
</mask>
<g mask="url(#mask4_178_531)">
<path d="M9.30577 33.4092C9.30577 33.4092 8.6046 40.4151 9.72647 40.9586C10.5278 41.3242 11.3692 41.6009 12.2306 41.7787C12.2306 41.7787 9.72647 36.423 9.30577 33.3993" fill="#FDB813"/>
</g>
</g>
<defs>
<clipPath id="clip0_178_531">
<rect width="60" height="60" fill="white"/>
</clipPath>
</defs>
</svg>
