<svg width="95" height="45" viewBox="0 0 95 45" fill="none" xmlns="http://www.w3.org/2000/svg">
<path opacity="0.6" d="M2.512 6V4.184H3.52C4.232 4.184 4.552 4.52 4.552 5.096C4.552 5.656 4.232 6 3.52 6H2.512ZM5.488 5.096C5.488 4.192 4.84 3.44 3.52 3.44H1.6V9H2.512V6.744H3.52C4.968 6.744 5.488 5.888 5.488 5.096ZM10.5578 6.792C10.5578 5.408 9.56581 4.52 8.30981 4.52C7.05381 4.52 6.06181 5.408 6.06181 6.792C6.06181 8.176 7.01381 9.072 8.26981 9.072C9.53381 9.072 10.5578 8.176 10.5578 6.792ZM6.98981 6.792C6.98981 5.792 7.60581 5.312 8.29381 5.312C8.97381 5.312 9.62181 5.792 9.62181 6.792C9.62181 7.792 8.94981 8.28 8.26981 8.28C7.58181 8.28 6.98981 7.792 6.98981 6.792ZM12.3154 9H13.2754L14.1634 5.744L15.0514 9H16.0114L17.3794 4.592H16.4834L15.5714 8.12L14.6754 4.592H13.7234L12.7874 8.136L11.8674 4.592H10.9394L12.3154 9ZM19.9169 5.288C20.5969 5.288 21.1329 5.72 21.1489 6.4H18.7089C18.8049 5.704 19.3009 5.288 19.9169 5.288ZM21.9809 7.688H20.9969C20.8289 8.032 20.5169 8.304 19.9569 8.304C19.2849 8.304 18.7649 7.864 18.7009 7.136H22.0689C22.0929 6.984 22.1009 6.84 22.1009 6.688C22.1009 5.392 21.2129 4.52 19.9569 4.52C18.6529 4.52 17.7569 5.408 17.7569 6.792C17.7569 8.176 18.6929 9.072 19.9569 9.072C21.0369 9.072 21.7329 8.456 21.9809 7.688ZM23.9104 6.68C23.9104 5.744 24.3264 5.464 24.9984 5.464H25.2304V4.52C24.6064 4.52 24.1664 4.792 23.9104 5.232V4.592H22.9984V9H23.9104V6.68ZM27.9248 5.288C28.6048 5.288 29.1408 5.72 29.1568 6.4H26.7168C26.8128 5.704 27.3088 5.288 27.9248 5.288ZM29.9887 7.688H29.0048C28.8368 8.032 28.5248 8.304 27.9648 8.304C27.2928 8.304 26.7728 7.864 26.7088 7.136H30.0768C30.1008 6.984 30.1088 6.84 30.1088 6.688C30.1088 5.392 29.2208 4.52 27.9648 4.52C26.6608 4.52 25.7648 5.408 25.7648 6.792C25.7648 8.176 26.7008 9.072 27.9648 9.072C29.0448 9.072 29.7408 8.456 29.9887 7.688ZM30.7023 6.776C30.7023 8.136 31.6223 9.072 32.7823 9.072C33.5023 9.072 34.0303 8.736 34.3103 8.336V9H35.2303V3.08H34.3103V5.208C33.9743 4.792 33.3663 4.52 32.7903 4.52C31.6223 4.52 30.7023 5.416 30.7023 6.776ZM34.3103 6.792C34.3103 7.744 33.6623 8.28 32.9743 8.28C32.2943 8.28 31.6383 7.728 31.6383 6.776C31.6383 5.824 32.2943 5.312 32.9743 5.312C33.6623 5.312 34.3103 5.848 34.3103 6.792ZM39.4183 5.248V3.08H38.5063V9H39.4183V8.36C39.7063 8.744 40.2263 9.072 40.9543 9.072C42.1143 9.072 43.0263 8.136 43.0263 6.776C43.0263 5.416 42.1223 4.52 40.9543 4.52C40.2582 4.52 39.7063 4.848 39.4183 5.248ZM42.0983 6.776C42.0983 7.728 41.4423 8.28 40.7543 8.28C40.0743 8.28 39.4183 7.744 39.4183 6.792C39.4183 5.848 40.0743 5.312 40.7543 5.312C41.4423 5.312 42.0983 5.824 42.0983 6.776ZM45.6641 7.952L44.4241 4.592H43.4081L45.1441 8.928L44.2481 11.072H45.1921L47.8961 4.592H46.9521L45.6641 7.952Z" fill="#34465D"/>
<g clip-path="url(#clip0_145_465)">
<path d="M11.8662 34.5379L15.2728 40.4617L22.1046 40.474L25.5298 34.5626L22.1231 28.6389L15.2914 28.6265L11.8662 34.5379ZM14.5841 34.541L16.6472 30.98L20.7611 30.9861L22.8119 34.5534L20.7488 38.1144L16.6349 38.1082L14.5841 34.541Z" fill="#FFC400"/>
<path d="M11.8662 20.6674L15.2728 26.5912L22.1046 26.6035L25.5298 20.6921L22.1231 14.7684L15.2914 14.756L11.8662 20.6674ZM14.5841 20.6705L16.6472 17.1095L20.7611 17.1157L22.8119 20.6829L20.7488 24.2439L16.6349 24.2378L14.5841 20.6705Z" fill="#FFC400"/>
<path d="M0 27.6042L3.40662 33.528L10.2384 33.5403L13.6635 27.6289L10.2569 21.7052L3.42515 21.6928L0 27.6042ZM2.71788 27.6073L4.78101 24.0463L8.89489 24.0524L10.9457 27.6197L8.88254 31.1807L4.76865 31.1745L2.71788 27.6073Z" fill="#FFC400"/>
<path d="M43.8755 27.1039C43.5111 27.2058 42.705 27.2645 42.322 27.2645C40.404 27.2645 39.3539 26.3966 39.3539 24.3181V19.151H37.7788V17.4956H39.3539V15.4757L40.262 14.7499H41.414V17.4956H43.9774V19.151H41.414V23.6726C41.414 24.7628 41.5159 25.4299 42.5845 25.4299C42.8069 25.4299 43.613 25.3682 43.8755 25.328V27.1039Z" fill="#54565B"/>
<path d="M50.6978 25.5473L48.4988 27.2027C48.3166 27.2645 48.0757 27.283 47.9336 27.283C46.0373 27.283 44.8853 26.1928 44.8853 24.6578V23.9721C44.8853 22.641 45.7747 21.3284 48.2548 21.2265L50.6978 21.1245V20.4574C50.6978 19.4475 49.9504 19.1047 48.7181 19.1047C47.7081 19.1047 45.6697 19.2869 45.6697 19.2869V17.4708C45.6697 17.4708 48.4556 17.2701 49.1227 17.2701C51.0993 17.2701 52.7579 17.897 52.7579 20.5007V27.0606H50.6978V25.5473ZM50.6978 22.6811L48.2363 22.8232C47.5105 22.8634 46.9237 23.268 46.9237 23.9752V24.2594C46.9237 24.9265 47.4487 25.2477 47.912 25.2477C48.3351 25.2477 48.6193 25.1458 49.1443 24.9234L50.6978 24.2779V22.6842V22.6811Z" fill="#54565B"/>
<path d="M57.1777 12.73H55.1177V27.0637H57.1777V12.73Z" fill="#54565B"/>
<path d="M67.5332 20.6428V23.1043H61.5971V23.6479C61.5971 25.1829 62.6472 25.5041 64.1421 25.5041C65.0316 25.5041 66.5851 25.3836 67.209 25.2817V27.0576C66.3627 27.178 65.0902 27.28 63.9784 27.28C61.7979 27.28 59.5371 26.4924 59.5371 23.6479V20.6397C59.5371 18.6599 60.547 17.267 63.5553 17.267C66.5635 17.267 67.5332 18.6599 67.5332 20.6397M65.4732 21.4458V20.5161C65.4732 19.7286 65.2107 19.0028 63.5553 19.0028C62.1222 19.0028 61.5971 19.5278 61.5971 20.5563V21.4458H65.4732Z" fill="#54565B"/>
<path d="M75.001 27.0637V21.0072C75.001 19.9169 74.4976 19.3517 73.7502 19.3517C73.5494 19.3517 73.3054 19.3919 73.0645 19.4938L71.1064 20.2999V27.0637H69.0464V17.4925H71.1064V19.0058L73.3054 17.3504C73.4877 17.2886 73.71 17.2701 73.8706 17.2701C76.0511 17.2701 77.0611 18.5611 77.0611 20.337V27.0576H75.001V27.0637Z" fill="#54565B"/>
<path d="M84.3872 27.1039C84.0228 27.2058 83.2167 27.2645 82.8337 27.2645C80.9158 27.2645 79.8657 26.3966 79.8657 24.3181V19.151H78.2905V17.4956H79.8657V15.4757L80.7737 14.7499H81.9226V17.4956H84.4861V19.151H81.9226V23.6726C81.9226 24.7628 82.0245 25.4299 83.0932 25.4299C83.3155 25.4299 84.1216 25.3682 84.3841 25.328V27.1039H84.3872Z" fill="#54565B"/>
<path d="M36.5492 40.4493L33.3804 36.3323H33.1766V40.4493H31.1196V26.1187H33.1766V34.9796H33.3804L36.4874 30.8811H38.9521L35.1748 35.5633L39.1528 40.4493H36.5492Z" fill="#54565B"/>
<path d="M47.5289 34.0314V36.493H41.5927V37.0366C41.5927 38.5715 42.6428 38.8927 44.1377 38.8927C45.0272 38.8927 46.5807 38.7723 47.2046 38.6704V40.4463C46.3583 40.5667 45.0858 40.6686 43.974 40.6686C41.7935 40.6686 39.5327 39.8811 39.5327 37.0366V34.0283C39.5327 32.0486 40.5427 30.6557 43.5509 30.6557C46.5591 30.6557 47.5289 32.0486 47.5289 34.0283M45.4688 34.8344V33.9048C45.4688 33.1172 45.2063 32.3914 43.5509 32.3914C42.1178 32.3914 41.5927 32.9165 41.5927 33.945V34.8344H45.4688Z" fill="#54565B"/>
<path d="M57.0352 34.0314V36.493H51.0991V37.0366C51.0991 38.5715 52.1492 38.8927 53.644 38.8927C54.5335 38.8927 56.087 38.7723 56.7109 38.6704V40.4463C55.8647 40.5667 54.5922 40.6686 53.4803 40.6686C51.2998 40.6686 49.0391 39.8811 49.0391 37.0366V34.0283C49.0391 32.0486 50.049 30.6557 53.0572 30.6557C56.0654 30.6557 57.0352 32.0486 57.0352 34.0283M54.9752 34.8344V33.9048C54.9752 33.1172 54.7126 32.3914 53.0572 32.3914C51.6241 32.3914 51.0991 32.9165 51.0991 33.945V34.8344H54.9752Z" fill="#54565B"/>
<path d="M60.6089 32.3945L62.8079 30.7391C62.9901 30.6773 63.2125 30.6588 63.3731 30.6588C65.5536 30.6588 66.5635 31.9497 66.5635 33.7256V37.401C66.5635 40.0046 64.5869 40.6717 62.5453 40.6717C61.6775 40.6717 61.2729 40.5698 60.6089 40.2269V44.7269H58.5488V30.878H60.6089V32.3914V32.3945ZM60.6089 37.3207C60.6089 38.2503 61.1524 38.8155 62.5453 38.8155C63.9383 38.8155 64.5035 38.2503 64.5035 37.3207V34.3928C64.5035 33.3427 64.0803 32.7589 63.2712 32.7589C63.0704 32.7589 62.7863 32.7991 62.5639 32.8794L60.6058 33.6855V37.3207H60.6089Z" fill="#54565B"/>
<path d="M76.5147 34.0314V36.493H70.5786V37.0366C70.5786 38.5715 71.6287 38.8927 73.1235 38.8927C74.013 38.8927 75.5665 38.7723 76.1904 38.6704V40.4463C75.3441 40.5667 74.0717 40.6686 72.9598 40.6686C70.7793 40.6686 68.5186 39.8811 68.5186 37.0366V34.0283C68.5186 32.0486 69.5285 30.6557 72.5367 30.6557C75.5449 30.6557 76.5147 32.0486 76.5147 34.0283M74.4547 34.8344V33.9048C74.4547 33.1172 74.1921 32.3914 72.5367 32.3914C71.1036 32.3914 70.5786 32.9165 70.5786 33.945V34.8344H74.4547Z" fill="#54565B"/>
<path d="M78.0278 40.4493V30.8811H80.0879V33.1017H80.1898C80.1898 33.1017 80.7951 30.8626 83.3401 30.7792V32.9782C81.0577 32.9164 80.1496 35.0166 80.091 35.1587V40.4462H78.0309L78.0278 40.4493Z" fill="#54565B"/>
<path d="M91.2282 38.1082C91.2282 40.1065 89.2886 40.6717 87.6147 40.6717C85.9407 40.6717 84.1432 40.4493 84.1432 40.4493V38.6518C84.1432 38.6518 86.1229 38.8958 87.312 38.8958C88.5845 38.8958 89.1682 38.5931 89.1682 37.926V37.5214C89.1682 37.0149 88.986 36.7338 88.22 36.6319L86.3638 36.391C85.0512 36.2088 84.103 35.3008 84.103 33.948V33.2222C84.103 31.5081 85.4743 30.6588 87.7382 30.6588C89.1095 30.6588 90.6846 30.8595 90.6846 30.8595V32.657C90.6846 32.657 89.0693 32.4563 88.0192 32.4563C86.7468 32.4563 86.1631 32.7188 86.1631 33.4847V33.7874C86.1631 34.331 86.3638 34.5935 87.173 34.6954L88.9705 34.9363C90.3634 35.1186 91.2313 36.0482 91.2313 37.3793V38.1051L91.2282 38.1082Z" fill="#54565B"/>
<path d="M92.0312 31.7799C92.0312 31.017 92.5841 30.4642 93.3469 30.4642C94.1098 30.4642 94.6565 31.017 94.6565 31.7799C94.6565 32.5427 94.0975 33.1018 93.3469 33.1018C92.5964 33.1018 92.0312 32.5427 92.0312 31.7799ZM94.3692 31.7799C94.3692 31.1622 93.9616 30.7236 93.3469 30.7236C92.7323 30.7236 92.3123 31.1622 92.3123 31.7799C92.3123 32.3976 92.7262 32.8361 93.3469 32.8361C93.9677 32.8361 94.3692 32.4038 94.3692 31.7799ZM92.8188 31.0541H93.2944C93.6898 31.0541 93.8967 31.2085 93.8967 31.4865C93.8967 31.7644 93.6682 31.8355 93.6249 31.8571C93.6496 31.8942 93.9677 32.3512 94.0264 32.379V32.4439H93.6712C93.5879 32.4007 93.3717 31.9868 93.2883 31.9219H93.1616V32.4439H92.8188V31.051V31.0541ZM93.3006 31.6841C93.452 31.6841 93.5354 31.6162 93.5354 31.505C93.5354 31.3938 93.4643 31.332 93.3006 31.332H93.1616V31.6872H93.3006V31.6841Z" fill="#54565B"/>
</g>
<defs>
<clipPath id="clip0_145_465">
<rect width="94.6565" height="32.32" fill="white" transform="translate(0 12.12)"/>
</clipPath>
</defs>
</svg>
