<svg width="18" height="18" viewBox="0 0 18 18" fill="none" xmlns="http://www.w3.org/2000/svg">
<path d="M14.0257 12.8478L17.5948 16.4162L16.4157 17.5953L12.8473 14.0262C11.5196 15.0905 9.86817 15.6694 8.1665 15.667C4.0265 15.667 0.666504 12.307 0.666504 8.16699C0.666504 4.02699 4.0265 0.666992 8.1665 0.666992C12.3065 0.666992 15.6665 4.02699 15.6665 8.16699C15.6689 9.86866 15.09 11.5201 14.0257 12.8478ZM12.354 12.2295C13.4116 11.1419 14.0022 9.68402 13.9998 8.16699C13.9998 4.94366 11.389 2.33366 8.1665 2.33366C4.94317 2.33366 2.33317 4.94366 2.33317 8.16699C2.33317 11.3895 4.94317 14.0003 8.1665 14.0003C9.68353 14.0027 11.1414 13.4121 12.229 12.3545L12.354 12.2295Z" fill="#64748B"/>
</svg>
