<svg width="28" height="26" viewBox="0 0 28 26" fill="none" xmlns="http://www.w3.org/2000/svg">
<path d="M20.3603 4.15999C20.6665 4.33382 21.029 4.37951 21.3687 4.28709C21.7084 4.19467 21.9978 3.97164 22.1737 3.66666C22.2911 3.46319 22.4603 3.29437 22.664 3.1773C22.8677 3.06023 23.0987 2.99906 23.3337 2.99999C23.6873 2.99999 24.0264 3.14047 24.2765 3.39052C24.5265 3.64057 24.667 3.97971 24.667 4.33333C24.667 4.68695 24.5265 5.02609 24.2765 5.27614C24.0264 5.52618 23.6873 5.66666 23.3337 5.66666C22.98 5.66666 22.6409 5.80714 22.3909 6.05719C22.1408 6.30723 22.0003 6.64637 22.0003 6.99999C22.0003 7.35362 22.1408 7.69275 22.3909 7.9428C22.6409 8.19285 22.98 8.33333 23.3337 8.33333C24.0357 8.33288 24.7253 8.14767 25.333 7.79631C25.9408 7.44495 26.4454 6.93981 26.7962 6.33166C27.1469 5.72351 27.3314 5.03376 27.3311 4.33173C27.3308 3.62969 27.1458 2.94009 26.7946 2.33222C26.4433 1.72435 25.9383 1.21962 25.3303 0.868746C24.7222 0.517873 24.0325 0.333216 23.3305 0.333328C22.6284 0.333441 21.9388 0.518319 21.3308 0.869386C20.7229 1.22045 20.218 1.72534 19.867 2.33333C19.7788 2.48551 19.7217 2.65362 19.6987 2.82799C19.6758 3.00236 19.6876 3.17955 19.7335 3.34933C19.7794 3.51912 19.8583 3.67816 19.9659 3.81729C20.0735 3.95642 20.2075 4.07289 20.3603 4.15999ZM26.0003 15C25.6467 15 25.3076 15.1405 25.0575 15.3905C24.8075 15.6406 24.667 15.9797 24.667 16.3333V21.6667C24.667 22.0203 24.5265 22.3594 24.2765 22.6095C24.0264 22.8595 23.6873 23 23.3337 23H4.66699C4.31337 23 3.97423 22.8595 3.72418 22.6095C3.47413 22.3594 3.33366 22.0203 3.33366 21.6667V8.87999L11.1737 16.7333C11.9237 17.4824 12.9403 17.9031 14.0003 17.9031C15.0603 17.9031 16.077 17.4824 16.827 16.7333L19.0137 14.5467C19.138 14.4223 19.2366 14.2748 19.3039 14.1123C19.3712 13.9499 19.4058 13.7758 19.4058 13.6C19.4058 13.4242 19.3712 13.2501 19.3039 13.0877C19.2366 12.9252 19.138 12.7776 19.0137 12.6533C18.8893 12.529 18.7418 12.4304 18.5793 12.3631C18.4169 12.2958 18.2428 12.2612 18.067 12.2612C17.8912 12.2612 17.7171 12.2958 17.5547 12.3631C17.3922 12.4304 17.2446 12.529 17.1203 12.6533L14.9337 14.84C14.6844 15.0843 14.3493 15.2211 14.0003 15.2211C13.6513 15.2211 13.3162 15.0843 13.067 14.84L5.21366 6.99999H15.3337C15.6873 6.99999 16.0264 6.85952 16.2765 6.60947C16.5265 6.35942 16.667 6.02028 16.667 5.66666C16.667 5.31304 16.5265 4.9739 16.2765 4.72385C16.0264 4.4738 15.6873 4.33333 15.3337 4.33333H4.66699C3.60613 4.33333 2.58871 4.75476 1.83857 5.5049C1.08842 6.25505 0.666992 7.27246 0.666992 8.33333V21.6667C0.666992 22.7275 1.08842 23.7449 1.83857 24.4951C2.58871 25.2452 3.60613 25.6667 4.66699 25.6667H23.3337C24.3945 25.6667 25.4119 25.2452 26.1621 24.4951C26.9122 23.7449 27.3337 22.7275 27.3337 21.6667V16.3333C27.3337 15.9797 27.1932 15.6406 26.9431 15.3905C26.6931 15.1405 26.3539 15 26.0003 15ZM22.387 10.0533C22.262 10.1773 22.1628 10.3247 22.0951 10.4872C22.0274 10.6497 21.9926 10.824 21.9926 11C21.9926 11.176 22.0274 11.3503 22.0951 11.5128C22.1628 11.6752 22.262 11.8227 22.387 11.9467L22.587 12.1067C22.6613 12.1571 22.742 12.1975 22.827 12.2267C22.9026 12.2651 22.9835 12.2921 23.067 12.3067H23.3337C23.5985 12.3082 23.8578 12.2308 24.0785 12.0844C24.2992 11.938 24.4713 11.7292 24.5728 11.4846C24.6744 11.24 24.7008 10.9708 24.6487 10.7111C24.5966 10.4514 24.4684 10.2132 24.2803 10.0267C24.1546 9.90342 24.0058 9.80629 23.8423 9.74088C23.6789 9.67546 23.5041 9.64306 23.3281 9.64554C23.1521 9.64802 22.9783 9.68533 22.8168 9.75532C22.6552 9.82531 22.5092 9.92659 22.387 10.0533Z" fill="#34465D"/>
</svg>
