<svg width="9" height="16" viewBox="0 0 9 16" fill="none" xmlns="http://www.w3.org/2000/svg">
<path d="M6.84337 14.8248L0.524621 8.5248C0.449621 8.4498 0.396371 8.36856 0.364871 8.28105C0.333371 8.19355 0.317871 8.0998 0.318371 7.9998C0.318371 7.89981 0.334121 7.80606 0.365621 7.71855C0.397121 7.63105 0.450121 7.5498 0.524621 7.4748L6.84337 1.15605C7.01837 0.981055 7.23712 0.893555 7.49962 0.893555C7.76212 0.893555 7.98712 0.987305 8.17462 1.1748C8.36212 1.3623 8.45587 1.58105 8.45587 1.83105C8.45587 2.08105 8.36212 2.2998 8.17462 2.4873L2.66212 7.9998L8.17462 13.5123C8.34962 13.6873 8.43712 13.9031 8.43712 14.1596C8.43712 14.4161 8.34337 14.6378 8.15587 14.8248C7.96837 15.0123 7.74962 15.1061 7.49962 15.1061C7.24962 15.1061 7.03087 15.0123 6.84337 14.8248Z" fill="#006AFF"/>
</svg>
