<svg width="3" height="14" viewBox="0 0 3 14" fill="none" xmlns="http://www.w3.org/2000/svg">
<path d="M1.5 2.8C1.10218 2.8 0.720645 2.6525 0.439341 2.38995C0.158036 2.1274 6.3783e-07 1.7713 6.5406e-07 1.4C6.7029e-07 1.0287 0.158036 0.672602 0.439341 0.410051C0.720645 0.1475 1.10218 -8.29565e-08 1.5 -6.55671e-08C1.89783 -4.81776e-08 2.27936 0.1475 2.56066 0.410051C2.84196 0.672602 3 1.0287 3 1.4C3 1.7713 2.84196 2.1274 2.56066 2.38995C2.27936 2.6525 1.89782 2.8 1.5 2.8ZM1.5 8.4C1.10218 8.4 0.720645 8.2525 0.43934 7.98995C0.158036 7.7274 3.93046e-07 7.3713 4.09276e-07 7C4.25506e-07 6.6287 0.158036 6.2726 0.439341 6.01005C0.720645 5.7475 1.10218 5.6 1.5 5.6C1.89782 5.6 2.27936 5.7475 2.56066 6.01005C2.84196 6.2726 3 6.6287 3 7C3 7.3713 2.84196 7.7274 2.56066 7.98995C2.27936 8.2525 1.89782 8.4 1.5 8.4ZM1.64492e-07 12.6C1.48262e-07 12.9713 0.158036 13.3274 0.43934 13.59C0.720645 13.8525 1.10218 14 1.5 14C1.89782 14 2.27935 13.8525 2.56066 13.59C2.84196 13.3274 3 12.9713 3 12.6C3 12.2287 2.84196 11.8726 2.56066 11.6101C2.27936 11.3475 1.89782 11.2 1.5 11.2C1.10218 11.2 0.720645 11.3475 0.43934 11.6101C0.158036 11.8726 1.80722e-07 12.2287 1.64492e-07 12.6Z" fill="#34465D" fill-opacity="0.5"/>
</svg>
