<svg width="15" height="14" viewBox="0 0 15 14" fill="none" xmlns="http://www.w3.org/2000/svg">
<path d="M1.5 14C0.947715 14 0.5 13.5523 0.5 13V9C0.5 8.44772 0.947715 8 1.5 8C2.05228 8 2.5 8.44771 2.5 9V11C2.5 11.5523 2.94772 12 3.5 12H5.5C6.05228 12 6.5 12.4477 6.5 13C6.5 13.5523 6.05228 14 5.5 14H1.5ZM13.5 6C12.9477 6 12.5 5.55228 12.5 5V3C12.5 2.44772 12.0523 2 11.5 2H9.5C8.94771 2 8.5 1.55228 8.5 1C8.5 0.447715 8.94772 0 9.5 0H13.5C14.0523 0 14.5 0.447715 14.5 1V5C14.5 5.55228 14.0523 6 13.5 6Z" fill="#34465D" fill-opacity="0.5"/>
</svg>
