<svg width="95" height="45" viewBox="0 0 95 45" fill="none" xmlns="http://www.w3.org/2000/svg">
<path opacity="0.6" d="M2.512 6.27002V4.45402H3.52C4.232 4.45402 4.552 4.79002 4.552 5.36602C4.552 5.92602 4.232 6.27002 3.52 6.27002H2.512ZM5.488 5.36602C5.488 4.46202 4.84 3.71002 3.52 3.71002H1.6V9.27002H2.512V7.01402H3.52C4.968 7.01402 5.488 6.15802 5.488 5.36602ZM10.5578 7.06202C10.5578 5.67802 9.56581 4.79002 8.30981 4.79002C7.05381 4.79002 6.06181 5.67802 6.06181 7.06202C6.06181 8.44602 7.01381 9.34202 8.26981 9.34202C9.53381 9.34202 10.5578 8.44602 10.5578 7.06202ZM6.98981 7.06202C6.98981 6.06202 7.60581 5.58202 8.29381 5.58202C8.97381 5.58202 9.62181 6.06202 9.62181 7.06202C9.62181 8.06202 8.94981 8.55002 8.26981 8.55002C7.58181 8.55002 6.98981 8.06202 6.98981 7.06202ZM12.3154 9.27002H13.2754L14.1634 6.01402L15.0514 9.27002H16.0114L17.3794 4.86202H16.4834L15.5714 8.39002L14.6754 4.86202H13.7234L12.7874 8.40602L11.8674 4.86202H10.9394L12.3154 9.27002ZM19.9169 5.55802C20.5969 5.55802 21.1329 5.99002 21.1489 6.67002H18.7089C18.8049 5.97402 19.3009 5.55802 19.9169 5.55802ZM21.9809 7.95802H20.9969C20.8289 8.30202 20.5169 8.57402 19.9569 8.57402C19.2849 8.57402 18.7649 8.13402 18.7009 7.40602H22.0689C22.0929 7.25402 22.1009 7.11002 22.1009 6.95802C22.1009 5.66202 21.2129 4.79002 19.9569 4.79002C18.6529 4.79002 17.7569 5.67802 17.7569 7.06202C17.7569 8.44602 18.6929 9.34202 19.9569 9.34202C21.0369 9.34202 21.7329 8.72602 21.9809 7.95802ZM23.9104 6.95002C23.9104 6.01402 24.3264 5.73402 24.9984 5.73402H25.2304V4.79002C24.6064 4.79002 24.1664 5.06202 23.9104 5.50202V4.86202H22.9984V9.27002H23.9104V6.95002ZM27.9248 5.55802C28.6048 5.55802 29.1408 5.99002 29.1568 6.67002H26.7168C26.8128 5.97402 27.3088 5.55802 27.9248 5.55802ZM29.9887 7.95802H29.0048C28.8368 8.30202 28.5248 8.57402 27.9648 8.57402C27.2928 8.57402 26.7728 8.13402 26.7088 7.40602H30.0768C30.1008 7.25402 30.1088 7.11002 30.1088 6.95802C30.1088 5.66202 29.2208 4.79002 27.9648 4.79002C26.6608 4.79002 25.7648 5.67802 25.7648 7.06202C25.7648 8.44602 26.7008 9.34202 27.9648 9.34202C29.0448 9.34202 29.7408 8.72602 29.9887 7.95802ZM30.7023 7.04602C30.7023 8.40602 31.6223 9.34202 32.7823 9.34202C33.5023 9.34202 34.0303 9.00602 34.3103 8.60602V9.27002H35.2303V3.35002H34.3103V5.47802C33.9743 5.06202 33.3663 4.79002 32.7903 4.79002C31.6223 4.79002 30.7023 5.68602 30.7023 7.04602ZM34.3103 7.06202C34.3103 8.01402 33.6623 8.55002 32.9743 8.55002C32.2943 8.55002 31.6383 7.99802 31.6383 7.04602C31.6383 6.09402 32.2943 5.58202 32.9743 5.58202C33.6623 5.58202 34.3103 6.11802 34.3103 7.06202ZM39.4183 5.51802V3.35002H38.5063V9.27002H39.4183V8.63002C39.7063 9.01402 40.2263 9.34202 40.9543 9.34202C42.1143 9.34202 43.0263 8.40602 43.0263 7.04602C43.0263 5.68602 42.1223 4.79002 40.9543 4.79002C40.2582 4.79002 39.7063 5.11802 39.4183 5.51802ZM42.0983 7.04602C42.0983 7.99802 41.4423 8.55002 40.7543 8.55002C40.0743 8.55002 39.4183 8.01402 39.4183 7.06202C39.4183 6.11802 40.0743 5.58202 40.7543 5.58202C41.4423 5.58202 42.0983 6.09402 42.0983 7.04602ZM45.6641 8.22202L44.4241 4.86202H43.4081L45.1441 9.19802L44.2481 11.342H45.1921L47.8961 4.86202H46.9521L45.6641 8.22202Z" fill="#34465D"/>
<g clip-path="url(#clip0_145_643)">
<path d="M11.8652 34.8079L15.2719 40.7317L22.1036 40.7441L25.5288 34.8327L22.1222 28.9089L15.2904 28.8965L11.8652 34.8079ZM14.5831 34.811L16.6462 31.25L20.7601 31.2562L22.8109 34.8234L20.7478 38.3844L16.6339 38.3783L14.5831 34.811Z" fill="#FFC400"/>
<path d="M11.8652 20.9375L15.2719 26.8612L22.1036 26.8736L25.5288 20.9622L22.1222 15.0384L15.2904 15.0261L11.8652 20.9375ZM14.5831 20.9405L16.6462 17.3795L20.7601 17.3857L22.8109 20.9529L20.7478 24.5139L16.6339 24.5078L14.5831 20.9405Z" fill="#FFC400"/>
<path d="M0 27.8742L3.40662 33.798L10.2384 33.8103L13.6635 27.8989L10.2569 21.9752L3.42515 21.9628L0 27.8742ZM2.71788 27.8773L4.78101 24.3163L8.89489 24.3224L10.9457 27.8897L8.88254 31.4507L4.76865 31.4445L2.71788 27.8773Z" fill="#FFC400"/>
<path d="M43.876 27.3739C43.5116 27.4758 42.7055 27.5345 42.3225 27.5345C40.4045 27.5345 39.3544 26.6666 39.3544 24.5881V19.421H37.7793V17.7656H39.3544V15.7457L40.2625 15.0199H41.4145V17.7656H43.9779V19.421H41.4145V23.9426C41.4145 25.0328 41.5164 25.6999 42.585 25.6999C42.8074 25.6999 43.6135 25.6382 43.876 25.598V27.3739Z" fill="#54565B"/>
<path d="M50.6973 25.8173L48.4983 27.4727C48.3161 27.5345 48.0752 27.553 47.9331 27.553C46.0368 27.553 44.8848 26.4628 44.8848 24.9278V24.2422C44.8848 22.911 45.7743 21.5984 48.2543 21.4965L50.6973 21.3946V20.7274C50.6973 19.7175 49.9499 19.3747 48.7176 19.3747C47.7077 19.3747 45.6692 19.5569 45.6692 19.5569V17.7409C45.6692 17.7409 48.4551 17.5401 49.1222 17.5401C51.0988 17.5401 52.7574 18.1671 52.7574 20.7707V27.3307H50.6973V25.8173ZM50.6973 22.9512L48.2358 23.0932C47.51 23.1334 46.9232 23.538 46.9232 24.2452V24.5294C46.9232 25.1965 47.4482 25.5177 47.9115 25.5177C48.3346 25.5177 48.6188 25.4158 49.1438 25.1934L50.6973 24.5479V22.9542V22.9512Z" fill="#54565B"/>
<path d="M57.1772 13H55.1172V27.3337H57.1772V13Z" fill="#54565B"/>
<path d="M67.5332 20.9128V23.3743H61.5971V23.9179C61.5971 25.4529 62.6472 25.7741 64.1421 25.7741C65.0316 25.7741 66.5851 25.6536 67.209 25.5517V27.3276C66.3627 27.4481 65.0902 27.55 63.9784 27.55C61.7979 27.55 59.5371 26.7624 59.5371 23.9179V20.9097C59.5371 18.93 60.547 17.537 63.5553 17.537C66.5635 17.537 67.5332 18.93 67.5332 20.9097M65.4732 21.7158V20.7862C65.4732 19.9986 65.2107 19.2728 63.5553 19.2728C62.1222 19.2728 61.5971 19.7978 61.5971 20.8263V21.7158H65.4732Z" fill="#54565B"/>
<path d="M75.0015 27.3337V21.2772C75.0015 20.1869 74.4981 19.6218 73.7507 19.6218C73.5499 19.6218 73.3059 19.6619 73.065 19.7638L71.1069 20.5699V27.3337H69.0469V17.7625H71.1069V19.2758L73.3059 17.6204C73.4881 17.5586 73.7105 17.5401 73.8711 17.5401C76.0516 17.5401 77.0615 18.8311 77.0615 20.607V27.3276H75.0015V27.3337Z" fill="#54565B"/>
<path d="M84.3877 27.3739C84.0233 27.4758 83.2172 27.5345 82.8342 27.5345C80.9162 27.5345 79.8662 26.6666 79.8662 24.5881V19.421H78.291V17.7656H79.8662V15.7457L80.7742 15.0199H81.9231V17.7656H84.4866V19.421H81.9231V23.9426C81.9231 25.0328 82.025 25.6999 83.0936 25.6999C83.316 25.6999 84.1221 25.6382 84.3846 25.598V27.3739H84.3877Z" fill="#54565B"/>
<path d="M36.5487 40.7193L33.3799 36.6024H33.1761V40.7193H31.1191V26.3887H33.1761V35.2496H33.3799L36.487 31.1511H38.9516L35.1743 35.8333L39.1523 40.7193H36.5487Z" fill="#54565B"/>
<path d="M47.5293 34.3015V36.763H41.5932V37.3066C41.5932 38.8416 42.6433 39.1628 44.1382 39.1628C45.0277 39.1628 46.5812 39.0423 47.205 38.9404V40.7163C46.3588 40.8367 45.0863 40.9387 43.9745 40.9387C41.794 40.9387 39.5332 40.1511 39.5332 37.3066V34.2984C39.5332 32.3186 40.5431 30.9257 43.5513 30.9257C46.5596 30.9257 47.5293 32.3186 47.5293 34.2984M45.4693 35.1045V34.1748C45.4693 33.3873 45.2068 32.6615 43.5513 32.6615C42.1183 32.6615 41.5932 33.1865 41.5932 34.215V35.1045H45.4693Z" fill="#54565B"/>
<path d="M57.0352 34.3015V36.763H51.0991V37.3066C51.0991 38.8416 52.1492 39.1628 53.644 39.1628C54.5335 39.1628 56.087 39.0423 56.7109 38.9404V40.7163C55.8647 40.8367 54.5922 40.9387 53.4803 40.9387C51.2998 40.9387 49.0391 40.1511 49.0391 37.3066V34.2984C49.0391 32.3186 50.049 30.9257 53.0572 30.9257C56.0654 30.9257 57.0352 32.3186 57.0352 34.2984M54.9752 35.1045V34.1748C54.9752 33.3873 54.7126 32.6615 53.0572 32.6615C51.6241 32.6615 51.0991 33.1865 51.0991 34.215V35.1045H54.9752Z" fill="#54565B"/>
<path d="M60.6089 32.6645L62.8079 31.0091C62.9901 30.9473 63.2125 30.9288 63.3731 30.9288C65.5536 30.9288 66.5635 32.2198 66.5635 33.9957V37.671C66.5635 40.2746 64.5869 40.9417 62.5453 40.9417C61.6775 40.9417 61.2729 40.8398 60.6089 40.497V44.9969H58.5488V31.1481H60.6089V32.6614V32.6645ZM60.6089 37.5907C60.6089 38.5203 61.1524 39.0855 62.5453 39.0855C63.9383 39.0855 64.5035 38.5203 64.5035 37.5907V34.6628C64.5035 33.6127 64.0803 33.029 63.2712 33.029C63.0704 33.029 62.7863 33.0691 62.5639 33.1494L60.6058 33.9555V37.5907H60.6089Z" fill="#54565B"/>
<path d="M76.5137 34.3015V36.763H70.5776V37.3066C70.5776 38.8416 71.6277 39.1628 73.1225 39.1628C74.012 39.1628 75.5655 39.0423 76.1894 38.9404V40.7163C75.3432 40.8367 74.0707 40.9387 72.9588 40.9387C70.7784 40.9387 68.5176 40.1511 68.5176 37.3066V34.2984C68.5176 32.3186 69.5275 30.9257 72.5357 30.9257C75.5439 30.9257 76.5137 32.3186 76.5137 34.2984M74.4537 35.1045V34.1748C74.4537 33.3873 74.1912 32.6615 72.5357 32.6615C71.1027 32.6615 70.5776 33.1865 70.5776 34.215V35.1045H74.4537Z" fill="#54565B"/>
<path d="M78.0273 40.7193V31.1511H80.0874V33.3718H80.1893C80.1893 33.3718 80.7946 31.1326 83.3396 31.0492V33.2482C81.0572 33.1864 80.1491 35.2866 80.0905 35.4287V40.7162H78.0304L78.0273 40.7193Z" fill="#54565B"/>
<path d="M91.2287 38.3782C91.2287 40.3765 89.2891 40.9417 87.6151 40.9417C85.9412 40.9417 84.1437 40.7193 84.1437 40.7193V38.9218C84.1437 38.9218 86.1234 39.1658 87.3125 39.1658C88.5849 39.1658 89.1687 38.8631 89.1687 38.196V37.7914C89.1687 37.2849 88.9864 37.0039 88.2205 36.9019L86.3643 36.661C85.0517 36.4788 84.1035 35.5708 84.1035 34.218V33.4922C84.1035 31.7781 85.4748 30.9288 87.7387 30.9288C89.11 30.9288 90.6851 31.1295 90.6851 31.1295V32.927C90.6851 32.927 89.0698 32.7263 88.0197 32.7263C86.7473 32.7263 86.1636 32.9888 86.1636 33.7548V34.0574C86.1636 34.601 86.3643 34.8635 87.1735 34.9654L88.971 35.2064C90.3639 35.3886 91.2318 36.3182 91.2318 37.6494V38.3752L91.2287 38.3782Z" fill="#54565B"/>
<path d="M92.0312 32.0499C92.0312 31.287 92.5841 30.7342 93.3469 30.7342C94.1098 30.7342 94.6565 31.287 94.6565 32.0499C94.6565 32.8128 94.0975 33.3718 93.3469 33.3718C92.5964 33.3718 92.0312 32.8128 92.0312 32.0499ZM94.3692 32.0499C94.3692 31.4322 93.9616 30.9936 93.3469 30.9936C92.7323 30.9936 92.3123 31.4322 92.3123 32.0499C92.3123 32.6676 92.7262 33.1062 93.3469 33.1062C93.9677 33.1062 94.3692 32.6738 94.3692 32.0499ZM92.8188 31.3241H93.2944C93.6898 31.3241 93.8967 31.4785 93.8967 31.7565C93.8967 32.0345 93.6682 32.1055 93.6249 32.1271C93.6496 32.1642 93.9677 32.6213 94.0264 32.6491V32.7139H93.6712C93.5879 32.6707 93.3717 32.2568 93.2883 32.192H93.1616V32.7139H92.8188V31.321V31.3241ZM93.3006 31.9542C93.452 31.9542 93.5354 31.8862 93.5354 31.775C93.5354 31.6638 93.4643 31.6021 93.3006 31.6021H93.1616V31.9572H93.3006V31.9542Z" fill="#54565B"/>
</g>
<defs>
<clipPath id="clip0_145_643">
<rect width="94.6565" height="32.32" fill="white" transform="translate(0 12.39)"/>
</clipPath>
</defs>
</svg>
