<svg width="100" height="77" viewBox="0 0 100 77" fill="none" xmlns="http://www.w3.org/2000/svg">
<g clip-path="url(#clip0_318_5468)">
<path d="M27.1177 35.5533C31.8238 34.6831 37.0982 43.2251 39.3713 46.5993C36.3523 49.0678 33.9904 52.7794 30.6517 54.7861C28.0412 56.3667 24.4184 56.2068 21.2573 57.8229C21.1863 55.603 20.3871 54.2711 22.3939 53.2944C23.9034 52.5485 25.8746 52.8327 28.9646 53.1523C30.4386 52.2999 33.1735 47.1321 35.2513 46.2264C28.6805 38.0218 24.4361 39.8154 26.3896 36.4235" fill="white"/>
<path d="M27.1177 35.5533C31.8238 34.6831 37.0982 43.2251 39.3713 46.5993C36.3523 49.0678 33.9904 52.7794 30.6517 54.7861C28.0412 56.3667 24.4184 56.2068 21.2573 57.8229C21.1863 55.603 20.3871 54.2711 22.3939 53.2944C23.9034 52.5485 25.8746 52.8327 28.9646 53.1523C30.4386 52.2999 33.1735 47.1321 35.2513 46.2264C28.6805 38.0218 24.4361 39.8154 26.3896 36.4235" stroke="#231F20" stroke-width="0.550524" stroke-linecap="round" stroke-linejoin="round"/>
<path d="M27.7936 37.5246C25.5382 37.5424 22.9454 42.6036 20.3526 45.2142C19.2871 44.8235 11.7218 41.5203 11.2601 41.0409C10.532 40.2595 10.8339 38.4126 10.6918 37.3825C10.532 36.1749 10.2656 34.5589 9.6263 33.5466C8.95147 33.9551 8.56077 36.5834 8.25887 37.5246C6.73161 37.1517 6.02126 35.5889 4.68935 34.7898C3.41071 34.0261 2.52277 34.3991 0.83568 34.9851C2.00776 36.6367 3.21536 35.5889 4.33417 37.2937C2.86019 36.6189 1.58155 37.5246 0.285156 38.377C1.63483 38.6434 2.54053 38.3238 3.78365 38.9986C3.69485 39.1939 1.88345 40.9876 1.75914 41.2184C2.96674 41.6091 5.00901 40.8988 6.12781 40.7212C6.3942 41.1297 7.17558 41.9643 7.58404 42.2662C8.43646 42.87 8.77388 42.0886 9.69734 42.5504C10.6741 43.0298 18.4347 49.281 21.2228 49.9913C24.5792 48.6949 26.9589 45.5516 28.5572 43.0476C29.8536 41.0231 31.3098 40.0996 28.2198 38.5546" fill="white"/>
<path d="M27.7936 37.5246C25.5382 37.5424 22.9454 42.6036 20.3526 45.2142C19.2871 44.8235 11.7218 41.5203 11.2601 41.0409C10.532 40.2595 10.8339 38.4126 10.6918 37.3825C10.532 36.1749 10.2656 34.5589 9.6263 33.5466C8.95147 33.9551 8.56077 36.5834 8.25887 37.5246C6.73161 37.1517 6.02126 35.5889 4.68935 34.7898C3.41071 34.0261 2.52277 34.3991 0.83568 34.9851C2.00776 36.6367 3.21536 35.5889 4.33417 37.2937C2.86019 36.6189 1.58155 37.5246 0.285156 38.377C1.63483 38.6434 2.54053 38.3238 3.78365 38.9986C3.69485 39.1939 1.88345 40.9876 1.75914 41.2184C2.96674 41.6091 5.00901 40.8988 6.12781 40.7212C6.3942 41.1297 7.17558 41.9643 7.58404 42.2662C8.43646 42.87 8.77388 42.0886 9.69734 42.5504C10.6741 43.0298 18.4347 49.281 21.2228 49.9913C24.5792 48.6949 26.9589 45.5516 28.5572 43.0476C29.8536 41.0231 31.3098 40.0996 28.2198 38.5546" stroke="#231F20" stroke-width="0.550524" stroke-linecap="round" stroke-linejoin="round"/>
<path d="M46.7064 42.1063C50.489 41.2894 56.3672 49.2454 57.2374 52.6728C57.5571 53.8982 58.374 55.7274 58.3917 55.6741C59.8479 54.946 60.7181 55.017 62.05 55.7096C64.0745 56.7574 64.554 57.1303 69.6331 64.1628C70.2546 65.033 71.0715 64.7666 71.924 65.5657C73.096 65.2283 72.3679 63.5235 73.611 63.9497C74.7831 64.3581 77.2694 67.0752 77.4825 68.1763C77.518 68.1763 81.6025 73.3086 81.6203 73.2908C79.7378 72.1543 69.5443 68.9222 69.0648 66.2406C65.6728 65.8321 59.1909 60.6643 57.8412 57.7519C55.941 58.6398 52.407 55.8339 51.0573 54.7151C49.0683 53.0635 47.7364 51.0745 46.5821 48.7659C45.9605 47.505 45.2857 46.2796 45.2324 44.8412C45.3035 44.9655 45.2324 45.0188 45.2324 45.1431" fill="white"/>
<path d="M46.7064 42.1063C50.489 41.2894 56.3672 49.2454 57.2374 52.6728C57.5571 53.8982 58.374 55.7274 58.3917 55.6741C59.8479 54.946 60.7181 55.017 62.05 55.7096C64.0745 56.7574 64.554 57.1303 69.6331 64.1628C70.2546 65.033 71.0715 64.7666 71.9239 65.5657C73.096 65.2283 72.3679 63.5235 73.611 63.9497C74.7831 64.3581 77.2694 67.0752 77.4825 68.1763C77.518 68.1763 81.6025 73.3086 81.6203 73.2908C79.7378 72.1543 69.5443 68.9222 69.0648 66.2406C65.6728 65.8321 59.1909 60.6643 57.8412 57.7519C55.941 58.6398 52.407 55.8339 51.0573 54.7151C49.0683 53.0635 47.7364 51.0745 46.5821 48.7659C45.9605 47.505 45.2857 46.2796 45.2324 44.8412C45.3035 44.9655 45.2324 45.0188 45.2324 45.1431" stroke="#231F20" stroke-width="0.550524" stroke-linecap="round" stroke-linejoin="round"/>
<path d="M34.2207 36.5834C35.1086 27.8638 37.5416 19.1619 41.9813 11.65C44.3077 7.72526 47.3978 3.88935 51.429 2.13123C54.3415 0.87035 58.0708 0.799314 59.9533 3.7828C61.9422 6.94387 60.8057 11.5079 59.1186 14.669C58.7634 15.3438 55.1229 20.9378 54.1461 19.1087C52.8675 16.6757 67.039 7.74302 67.1278 17.6702C67.1811 22.9091 62.475 27.775 58.9055 30.6164C54.5368 34.0971 49.5111 36.1216 44.3077 37.1516C43.2067 37.3648 42.1056 37.5423 41.0046 37.7377C41.2887 37.7732 41.4308 37.6134 41.6972 37.5423" fill="white"/>
<path d="M34.2207 36.5834C35.1086 27.8638 37.5416 19.1619 41.9813 11.65C44.3077 7.72526 47.3978 3.88935 51.429 2.13123C54.3415 0.87035 58.0708 0.799314 59.9533 3.7828C61.9422 6.94387 60.8057 11.5079 59.1186 14.669C58.7634 15.3438 55.1228 20.9378 54.1461 19.1087C52.8675 16.6757 67.039 7.74302 67.1278 17.6702C67.1811 22.9091 62.475 27.775 58.9055 30.6164C54.5368 34.0971 49.5111 36.1216 44.3077 37.1516C43.2067 37.3648 42.1056 37.5423 41.0046 37.7377C41.2887 37.7732 41.4308 37.6134 41.6972 37.5423" stroke="#231F20" stroke-width="0.550524" stroke-linecap="round" stroke-linejoin="round"/>
<g style="mix-blend-mode:multiply">
<mask id="mask0_318_5468" style="mask-type:luminance" maskUnits="userSpaceOnUse" x="35" y="2" width="32" height="34">
<path d="M66.9339 2.84155H35.4297V35.3402H66.9339V2.84155Z" fill="white"/>
</mask>
<g mask="url(#mask0_318_5468)">
<path d="M35.8204 34.2392C36.2466 28.2545 37.0102 21.9323 40.0115 16.658C41.9472 13.2483 44.682 10.2648 47.3281 7.51215C49.7078 5.04367 53.6325 1.31432 56.9534 3.53417C60.5762 5.94937 59.1377 11.4191 57.7703 14.9709C60.5229 13.9408 65.1225 13.0707 66.5787 16.658C68.3013 20.8668 62.9736 21.6837 60.6117 20.5649C57.5394 19.1087 54.9644 16.5514 51.7501 19.7125C48.6955 22.7492 48.4824 27.6329 46.085 31.1314C43.4034 35.0383 39.3011 36.3703 35.4297 34.5056C35.5362 34.399 35.6961 34.2925 35.8381 34.2214" fill="#FFC50A"/>
</g>
</g>
<path d="M35.2344 29.7107C40.0648 24.2765 49.992 29.6574 52.123 35.3047C53.1886 38.1461 53.5615 42.2307 52.3361 45.0899C50.7201 48.8547 45.3392 50.5241 41.8584 50.2577C37.1878 49.9203 29.3029 49.4408 26.2129 39.5491" fill="white"/>
<path d="M35.2344 29.7107C40.0648 24.2765 49.992 29.6574 52.123 35.3047C53.1886 38.1461 53.5615 42.2307 52.3361 45.0899C50.7201 48.8547 45.3392 50.5241 41.8584 50.2577C37.1878 49.9203 29.3029 49.4408 26.2129 39.5491" stroke="#231F20" stroke-width="0.550524" stroke-linecap="round" stroke-linejoin="round"/>
<path d="M49.8159 31.7707C60.631 30.279 71.9256 34.1682 79.26 42.4971C83.0249 46.7769 85.7065 53.7739 81.2135 58.5511C76.5429 63.5235 68.8001 61.3392 63.6678 58.4445C57.026 54.7151 51.4852 49.1211 45.8379 44.0954C45.9444 44.0598 46.051 44.0598 46.1753 44.0954" fill="white"/>
<path d="M49.8159 31.7707C60.631 30.279 71.9256 34.1682 79.26 42.4971C83.0249 46.7769 85.7065 53.7739 81.2135 58.5511C76.5429 63.5235 68.8001 61.3392 63.6678 58.4445C57.026 54.7151 51.4852 49.1211 45.8379 44.0954C45.9444 44.0598 46.051 44.0598 46.1753 44.0954" stroke="#231F20" stroke-width="0.550524" stroke-linecap="round" stroke-linejoin="round"/>
<g style="mix-blend-mode:multiply">
<mask id="mask1_318_5468" style="mask-type:luminance" maskUnits="userSpaceOnUse" x="48" y="31" width="35" height="29">
<path d="M82.3318 31.9482H48.5723V59.7763H82.3318V31.9482Z" fill="white"/>
</mask>
<g mask="url(#mask1_318_5468)">
<path d="M52.5155 32.5699C58.1628 31.238 63.6858 32.1614 68.5872 35.3225C71.2865 37.0628 73.7905 39.1762 76.2945 41.1651C78.6032 42.9943 81.4624 45.0721 82.1372 48.1266C82.741 50.7904 81.5689 53.6496 80.3791 55.9938C79.2247 58.2847 79.3846 56.864 79.3846 55.1058C79.3846 53.7029 79.7397 47.7537 78.248 46.9545C77.218 46.404 77.3956 52.0691 77.3601 52.8682C77.2535 54.946 77.0937 59.7942 74.0392 59.7942C71.5884 59.7942 70.7893 56.9883 71.3221 55.0525C72.0857 52.2111 74.128 50.0446 74.2345 46.9545C74.2523 46.1909 73.5952 40.7744 72.0147 41.3605C71.0734 41.7157 71.6417 48.8902 71.4819 49.8847C71.0379 52.6373 69.2976 56.9172 65.8346 56.8107C62.8156 56.7219 64.1297 53.5253 64.9111 51.856C66.4206 48.6061 67.7525 45.374 67.0067 41.7157C66.7048 40.2417 65.2308 36.0328 63.4549 38.4836C61.5192 41.1651 61.7145 45.7114 60.4537 48.7659C59.4592 51.1811 57.9852 52.0335 57.6122 48.8725C57.2571 45.7469 57.9497 42.5681 57.5234 39.4248C57.3814 38.377 57.0795 37.3825 56.7243 36.4058C55.2148 38.892 54.611 47.2742 50.2778 46.1199C45.9802 44.9655 51.0237 39.4425 51.521 37.2227C51.9827 35.1271 52.3556 33.5644 53.9006 31.9661C54.0427 32.1437 53.9717 32.268 53.9717 32.4811" fill="#FFC50A"/>
</g>
</g>
<g style="mix-blend-mode:multiply">
<mask id="mask2_318_5468" style="mask-type:luminance" maskUnits="userSpaceOnUse" x="31" y="34" width="20" height="14">
<path d="M50.5043 34.1858H31.0762V47.5404H50.5043V34.1858Z" fill="white"/>
</mask>
<g mask="url(#mask2_318_5468)">
<path d="M50.5062 40.3482C49.2808 44.9655 46.3151 48.1443 41.5735 47.4339C38.3236 46.9544 32.1258 46.1908 31.1491 42.0175C30.7939 40.508 31.8772 40.2949 32.8717 39.6023C34.6831 38.3236 35.5532 36.1748 37.1693 34.7009C39.0162 33.0315 39.691 35.7486 40.3836 37.2226C41.4669 39.549 42.7278 40.3304 44.8234 38.5723C45.8889 37.6843 48.3929 34.1148 49.7603 36.0683C50.7548 37.489 50.3286 40.2416 50.1865 41.8932" fill="#FFC50A"/>
</g>
</g>
<path d="M53.2772 43.9177C57.6814 42.3726 65.9038 51.0034 67.4665 54.9637C68.0348 56.3844 69.2779 58.4444 69.2957 58.3911C70.9295 57.3078 71.9773 57.2368 73.6821 57.8761C76.2572 58.8351 76.8965 59.1903 84.0355 66.8266C84.9235 67.7678 85.8469 67.3238 86.9835 68.1762C88.3332 67.5902 87.1966 65.6545 88.7416 65.9919C90.1978 66.3116 93.5898 69.1885 93.9982 70.4494C94.0337 70.4494 99.6811 75.9546 99.7166 75.9368C97.3014 74.8713 84.6216 72.5449 83.6448 69.4016C79.507 69.4016 70.9828 64.216 68.9583 60.9484C66.8272 62.2981 62.1744 59.4744 60.3808 58.3378C57.7525 56.6685 55.8523 54.4842 54.1474 51.9091C53.2062 50.4884 52.2117 49.1388 51.9453 47.4339C52.0519 47.576 51.9808 47.647 51.9986 47.7891" fill="white"/>
<path d="M53.2772 43.9177C57.6814 42.3726 65.9038 51.0034 67.4665 54.9637C68.0348 56.3844 69.2779 58.4444 69.2957 58.3911C70.9295 57.3078 71.9773 57.2368 73.6821 57.8761C76.2572 58.8351 76.8965 59.1903 84.0355 66.8266C84.9235 67.7678 85.8469 67.3238 86.9835 68.1762C88.3332 67.5902 87.1966 65.6545 88.7416 65.9919C90.1978 66.3116 93.5898 69.1885 93.9982 70.4494C94.0338 70.4494 99.6811 75.9546 99.7166 75.9368C97.3014 74.8713 84.6216 72.5449 83.6448 69.4016C79.507 69.4016 70.9828 64.216 68.9583 60.9484C66.8272 62.2981 62.1744 59.4744 60.3808 58.3378C57.7525 56.6685 55.8523 54.4842 54.1474 51.9091C53.2062 50.4884 52.2117 49.1388 51.9453 47.4339C52.0519 47.576 51.9808 47.647 51.9986 47.7891" stroke="#231F20" stroke-width="0.550524" stroke-linecap="round" stroke-linejoin="round"/>
<path d="M34.666 27.9525C42.7108 18.3805 52.638 9.98054 64.0924 4.52858C70.0771 1.68717 76.9498 -0.461651 83.3252 0.532843C87.907 1.26096 92.5776 4.01358 92.5243 8.96829C92.471 14.1894 87.4275 18.7001 82.828 21.1331C81.8512 21.6481 72.9008 25.4485 73.1672 22.5716C73.5223 18.7179 98.1183 19.002 90.3222 30.7761C86.2199 36.974 76.5413 39.1228 69.864 39.7621C61.695 40.5257 53.8988 39.105 46.6355 36.3524C45.1082 35.7664 43.5987 35.1448 42.0892 34.5233C42.4089 34.7719 42.7285 34.7186 43.1015 34.8074" fill="white"/>
<path d="M34.666 27.9525C42.7108 18.3805 52.638 9.98054 64.0924 4.52858C70.0771 1.68717 76.9498 -0.461651 83.3252 0.532843C87.907 1.26096 92.5776 4.01358 92.5243 8.96829C92.471 14.1894 87.4275 18.7001 82.828 21.1331C81.8512 21.6481 72.9008 25.4485 73.1672 22.5716C73.5223 18.7179 98.1183 19.002 90.3222 30.7761C86.2199 36.974 76.5413 39.1228 69.864 39.7621C61.695 40.5257 53.8988 39.105 46.6355 36.3524C45.1082 35.7664 43.5987 35.1448 42.0892 34.5233C42.4089 34.7719 42.7285 34.7186 43.1015 34.8074" stroke="#231F20" stroke-width="0.550524" stroke-linecap="round" stroke-linejoin="round"/>
<g style="mix-blend-mode:multiply">
<mask id="mask3_318_5468" style="mask-type:luminance" maskUnits="userSpaceOnUse" x="44" y="2" width="47" height="27">
<path d="M90.9295 2.68164H44.1172V28.3787H90.9295V2.68164Z" fill="white"/>
</mask>
<g mask="url(#mask3_318_5468)">
<path d="M44.7567 22.9623C49.4273 17.2262 54.7016 11.3658 61.6986 8.00938C66.2094 5.8428 71.3061 4.59968 76.1365 3.56967C80.4697 2.62845 87.4134 1.43861 89.4912 5.82504C91.7643 10.6022 86.3479 15.1662 82.3344 17.8655C86.0637 18.6292 91.7288 20.7247 90.8053 25.2887C89.7398 30.6341 83.3289 28.0058 81.5175 25.342C79.1733 21.8968 78.1433 17.6347 72.4072 18.7357C66.9197 19.8012 63.2614 24.5784 58.1646 26.5496C52.4995 28.7339 47.0476 27.402 44.0996 23.0156C44.295 22.9801 44.5258 22.9801 44.7389 22.9801" fill="#FFC50A"/>
</g>
</g>
<path d="M39.5126 36.1749C45.3375 35.0916 51.8905 45.6936 54.6964 49.8847C50.9493 52.957 48.0191 57.5388 43.8813 60.0428C40.6314 61.9962 36.1384 61.8009 32.2315 63.7899C32.1427 61.0372 31.1482 59.3857 33.6344 58.1781C35.4991 57.2546 37.9498 57.6098 41.768 58.0005C43.5971 56.9527 46.9891 50.5418 49.5819 49.423C41.4306 39.2472 36.1739 41.4848 38.5714 37.2582" fill="white"/>
<path d="M39.5126 36.1749C45.3375 35.0916 51.8905 45.6936 54.6964 49.8847C50.9493 52.957 48.0191 57.5388 43.8813 60.0428C40.6314 61.9962 36.1384 61.8009 32.2315 63.7899C32.1427 61.0372 31.1482 59.3857 33.6344 58.1781C35.4991 57.2546 37.9498 57.6098 41.768 58.0005C43.5971 56.9527 46.9891 50.5418 49.5819 49.423C41.4306 39.2472 36.1739 41.4848 38.5714 37.2582" stroke="#231F20" stroke-width="0.550524" stroke-linecap="round" stroke-linejoin="round"/>
<path d="M18.4707 36.0505C21.4542 38.5545 25.5387 40.7921 29.1793 38.1638C31.9141 36.1926 34.4537 31.8416 32.3226 25.3064" fill="white"/>
<path d="M18.4707 36.0505C21.4542 38.5545 25.5387 40.7921 29.1793 38.1638C31.9141 36.1926 34.4537 31.8416 32.3226 25.3064" stroke="#231F20" stroke-width="0.550524" stroke-linecap="round" stroke-linejoin="round"/>
<path d="M22.6602 35.429C25.5548 34.9317 27.0466 34.0083 28.0056 31.2024" stroke="#231F20" stroke-width="0.550524" stroke-linecap="round" stroke-linejoin="round"/>
<path d="M31.3276 6.4288C29.1077 6.16242 19.8199 6.09138 19.7311 8.66641C19.5357 14.6867 19.8732 24.2764 22.8034 27.402C29.8003 34.8429 35.3766 22.8202 29.9602 16.7644C24.5437 10.7442 16.2859 13.9053 13.1426 20.0853C12.4322 21.4705 12.3789 21.3285 12.0948 22.8557C11.7041 24.9868 11.2779 28.7694 12.0948 30.7939C13.2491 33.6531 16.5345 36.5478 18.9852 33.2091C22.8389 27.9703 15.8597 22.5538 10.4787 21.2574C8.40094 20.7602 5.04452 20.6536 3.55278 21.1864C1.40396 21.9323 0.285156 27.1178 0.285156 31.38" stroke="#231F20" stroke-width="0.550524" stroke-linecap="round" stroke-linejoin="round"/>
<g style="mix-blend-mode:multiply">
<mask id="mask4_318_5468" style="mask-type:luminance" maskUnits="userSpaceOnUse" x="12" y="21" width="8" height="14">
<path d="M19.7993 21.8789H12.0742V34.8961H19.7993V21.8789Z" fill="white"/>
</mask>
<g mask="url(#mask4_318_5468)">
<path d="M12.9467 21.8789C12.1298 25.4839 10.94 31.2556 14.4207 33.9016C19.2866 37.56 20.9737 30.3144 18.9847 26.9402C17.7416 24.8091 15.7349 23.2641 13.7459 21.8789" fill="#FFC50A"/>
</g>
</g>
<g style="mix-blend-mode:multiply">
<mask id="mask5_318_5468" style="mask-type:luminance" maskUnits="userSpaceOnUse" x="19" y="13" width="14" height="17">
<path d="M32.3766 13.6389H19.5547V29.462H32.3766V13.6389Z" fill="white"/>
</mask>
<g mask="url(#mask5_318_5468)">
<path d="M20.2274 14.58C19.5526 19.2506 19.8012 29.9237 27.0645 29.4264C34.4167 28.9292 33.3157 18.3449 28.8759 15.1661C25.6261 12.8397 22.5005 13.2304 19.5703 15.7699" fill="#FFC50A"/>
</g>
</g>
<path d="M39.2285 42.3017C44.6627 42.5148 47.6285 37.6489 45.746 32.5343C44.9114 30.2967 43.1 28.5919 42.1055 26.4253C40.8623 23.7437 41.0044 20.8845 40.9689 17.9899C40.9689 16.1607 40.9334 13.1594 39.2285 11.9696C38.9799 11.792 36.7245 10.833 35.2506 12.9463C34.5224 13.9764 34.2561 15.4326 34.2916 16.5336C34.3448 18.0431 34.8776 19.5526 35.6768 20.8135C35.8011 21.0266 37.4349 22.7137 37.4171 22.8203C37.4349 22.7315 32.3559 22.8203 29.9051 25.1644C28.9106 26.3187 28.4844 27.8105 29.5677 29.3022C30.2781 30.279 31.2548 30.7585 32.3203 30.8828C33.6878 31.0604 38.234 29.7107 38.0564 29.1779C37.8433 28.8227 33.6878 29.8883 32.569 31.895C31.1305 34.47 32.9419 36.5301 35.6768 35.4823C36.8133 35.0561 38.7668 33.7597 38.5715 33.3335C38.1097 33.2092 34.0074 36.1927 33.5279 38.8387C33.0129 41.7334 35.4459 42.941 37.9144 41.8932C39.2996 41.3072 40.667 40.5436 41.6792 39.4603C42.283 38.7144 41.0577 38.3415 39.4594 39.8332" fill="white"/>
<path d="M39.2285 42.3017C44.6627 42.5148 47.6285 37.6489 45.746 32.5343C44.9114 30.2967 43.1 28.5919 42.1055 26.4253C40.8623 23.7437 41.0044 20.8845 40.9689 17.9899C40.9689 16.1607 40.9334 13.1594 39.2285 11.9696C38.9799 11.792 36.7245 10.833 35.2506 12.9463C34.5224 13.9764 34.2561 15.4326 34.2916 16.5336C34.3448 18.0431 34.8776 19.5526 35.6768 20.8135C35.8011 21.0266 37.4349 22.7137 37.4171 22.8203C37.4349 22.7315 32.3559 22.8203 29.9051 25.1644C28.9106 26.3187 28.4844 27.8105 29.5677 29.3022C30.2781 30.279 31.2548 30.7585 32.3203 30.8828C33.6878 31.0604 38.234 29.7107 38.0564 29.1779C37.8433 28.8227 33.6878 29.8883 32.569 31.895C31.1305 34.47 32.9419 36.5301 35.6768 35.4823C36.8133 35.0561 38.7668 33.7597 38.5715 33.3335C38.1097 33.2092 34.0074 36.1927 33.5279 38.8387C33.0129 41.7334 35.4459 42.941 37.9144 41.8932C39.2996 41.3072 40.667 40.5436 41.6792 39.4603C42.283 38.7144 41.0577 38.3415 39.4594 39.8332" stroke="#231F20" stroke-width="0.550524" stroke-linecap="round" stroke-linejoin="round"/>
</g>
<defs>
<clipPath id="clip0_318_5468">
<rect width="100" height="76.1854" fill="white"/>
</clipPath>
</defs>
</svg>
