<svg width="33" height="33" viewBox="0 0 33 33" fill="none" xmlns="http://www.w3.org/2000/svg">
<path d="M10.4756 5.68801L7.19559 8.97101L5.91559 7.69101L4.47559 9.12801L6.47559 11.128L7.19559 11.814L7.91559 11.127L11.9156 7.12701L10.4756 5.68701V5.68801ZM15.1956 7.40801V9.40801H28.1956V7.40801H15.1956ZM10.4756 13.688L7.19559 16.972L5.91559 15.688L4.47559 17.128L6.47559 19.128L7.19559 19.814L7.91559 19.127L11.9156 15.127L10.4756 13.687V13.688ZM15.1956 15.408V17.408H28.1956V15.408H15.1956ZM10.4756 21.688L7.19559 24.971L5.91559 23.691L4.47559 25.128L6.47559 27.128L7.19559 27.814L7.91559 27.127L11.9156 23.127L10.4756 21.687V21.688ZM15.1956 23.408V25.408H28.1956V23.408H15.1956Z" fill="#34465E"/>
</svg>
