<svg width="31" height="31" viewBox="0 0 31 31" fill="none" xmlns="http://www.w3.org/2000/svg">
<rect x="0.0898438" y="0.575455" width="30.3018" height="30.3018" rx="15.1509" fill="#C2CFE0"/>
<path d="M15.2407 15.7264C17.3997 15.7264 19.0284 14.0976 19.0284 11.9386C19.0284 9.77963 17.3997 8.15091 15.2407 8.15091C13.0817 8.15091 11.4529 9.77963 11.4529 11.9386C11.4529 14.0976 13.0817 15.7264 15.2407 15.7264ZM15.2407 10.0448C16.3562 10.0448 17.1345 10.8232 17.1345 11.9386C17.1345 13.0541 16.3562 13.8325 15.2407 13.8325C14.1252 13.8325 13.3468 13.0541 13.3468 11.9386C13.3468 10.8232 14.1252 10.0448 15.2407 10.0448ZM16.1876 16.6733H14.2937C11.6831 16.6733 9.55908 18.7973 9.55908 21.408V22.3549H11.4529V21.408C11.4529 19.8417 12.7275 18.5672 14.2937 18.5672H16.1876C17.7538 18.5672 19.0284 19.8417 19.0284 21.408V22.3549H20.9223V21.408C20.9223 18.7973 18.7983 16.6733 16.1876 16.6733Z" fill="white"/>
</svg>
