<svg width="33" height="33" viewBox="0 0 33 33" fill="none" xmlns="http://www.w3.org/2000/svg">
<path d="M19.0459 5.30397C18.2325 4.77219 17.2817 4.48898 16.3099 4.48898C15.3381 4.48898 14.3873 4.77219 13.5739 5.30397L2.76188 12.372C2.60808 12.4724 2.4849 12.6132 2.40588 12.7791C2.32685 12.9449 2.29502 13.1293 2.31388 13.312C2.31103 13.3439 2.3097 13.3759 2.30988 13.408V21.408C2.30988 21.6732 2.41524 21.9275 2.60277 22.1151C2.79031 22.3026 3.04466 22.408 3.30988 22.408C3.5751 22.408 3.82945 22.3026 4.01699 22.1151C4.20452 21.9275 4.30988 21.6732 4.30988 21.408V15.096L6.30988 16.45V23.81C6.30986 24.0483 6.39497 24.2788 6.54988 24.46L6.55388 24.466L6.56588 24.48L6.60588 24.524L6.74188 24.672C6.85988 24.796 7.02988 24.968 7.24988 25.172C7.68988 25.578 8.33588 26.114 9.16788 26.652C10.8279 27.722 13.2659 28.812 16.3099 28.812C19.3539 28.812 21.7899 27.722 23.4519 26.652C24.2839 26.114 24.9299 25.578 25.3699 25.172C25.5935 24.9651 25.8084 24.7489 26.0139 24.524L26.0539 24.48L26.0659 24.466L26.0699 24.462L26.0719 24.458C26.2252 24.2776 26.3095 24.0487 26.3099 23.812V16.448L29.8699 14.038C30.0135 13.9531 30.1307 13.83 30.2084 13.6823C30.2861 13.5347 30.3212 13.3684 30.3099 13.202C30.3086 13.0369 30.2665 12.8747 30.1872 12.7299C30.108 12.5851 29.9942 12.4621 29.8559 12.372L19.0459 5.30397ZM24.3099 17.8V23.414C23.7174 23.9976 23.0666 24.519 22.3679 24.97C20.9279 25.896 18.8659 26.81 16.3099 26.81C13.7539 26.81 11.6899 25.896 10.2519 24.97C9.55303 24.5183 8.9023 23.9963 8.30988 23.412V17.802L13.5079 21.32C14.3351 21.8797 15.3111 22.1789 16.3099 22.1789C17.3087 22.1789 18.2846 21.8797 19.1119 21.32L24.3099 17.8ZM7.30988 23.81L6.54988 24.458L7.30988 23.808V23.81ZM14.6679 6.97797C15.156 6.65874 15.7266 6.48872 16.3099 6.48872C16.8931 6.48872 17.4637 6.65874 17.9519 6.97797L27.5039 13.208L17.9919 19.664C17.4954 20.0002 16.9095 20.1798 16.3099 20.1798C15.7103 20.1798 15.1244 20.0002 14.6279 19.664L5.11388 13.224L14.6679 6.97797Z" fill="#34465D"/>
</svg>
