<svg width="24" height="24" viewBox="0 0 24 24" fill="none" xmlns="http://www.w3.org/2000/svg">
<path d="M13.7502 10C13.7502 10.414 14.0862 10.75 14.5002 10.75H15.1902L13.1772 12.763C13.1539 12.7863 13.1263 12.8048 13.096 12.8174C13.0656 12.83 13.033 12.8364 13.0002 12.8364C12.9673 12.8364 12.9347 12.83 12.9043 12.8174C12.874 12.8048 12.8464 12.7863 12.8232 12.763L11.2372 11.177C10.909 10.8491 10.4641 10.6649 10.0002 10.6649C9.53624 10.6649 9.09131 10.8491 8.76315 11.177L6.47015 13.47C6.39647 13.5387 6.33736 13.6215 6.29637 13.7135C6.25538 13.8055 6.23334 13.9048 6.23156 14.0055C6.22979 14.1062 6.24831 14.2062 6.28603 14.2996C6.32375 14.393 6.3799 14.4778 6.45112 14.549C6.52233 14.6203 6.60717 14.6764 6.70056 14.7141C6.79394 14.7518 6.89397 14.7704 6.99468 14.7686C7.09538 14.7668 7.19469 14.7448 7.28669 14.7038C7.37869 14.6628 7.46149 14.6037 7.53015 14.53L9.82315 12.237C9.84638 12.2137 9.87396 12.1952 9.90434 12.1826C9.93471 12.17 9.96727 12.1636 10.0002 12.1636C10.033 12.1636 10.0656 12.17 10.096 12.1826C10.1263 12.1952 10.1539 12.2137 10.1772 12.237L11.7632 13.823C12.0913 14.1509 12.5362 14.3351 13.0002 14.3351C13.4641 14.3351 13.909 14.1509 14.2372 13.823L16.2502 11.811V12.5C16.2502 12.6989 16.3292 12.8897 16.4698 13.0303C16.6105 13.171 16.8012 13.25 17.0002 13.25C17.1991 13.25 17.3898 13.171 17.5305 13.0303C17.6711 12.8897 17.7502 12.6989 17.7502 12.5V10C17.7502 9.80109 17.6711 9.61032 17.5305 9.46967C17.3898 9.32902 17.1991 9.25 17.0002 9.25H14.5002C14.3012 9.25 14.1105 9.32902 13.9698 9.46967C13.8292 9.61032 13.7502 9.80109 13.7502 10Z" fill="#2DAF52"/>
<path fill-rule="evenodd" clip-rule="evenodd" d="M11.943 1.25C9.634 1.25 7.825 1.25 6.413 1.44C4.969 1.634 3.829 2.04 2.934 2.934C2.039 3.829 1.634 4.969 1.44 6.414C1.25 7.825 1.25 9.634 1.25 11.943V12.057C1.25 14.366 1.25 16.175 1.44 17.587C1.634 19.031 2.04 20.171 2.934 21.066C3.829 21.961 4.969 22.366 6.414 22.56C7.825 22.75 9.634 22.75 11.943 22.75H12.057C14.366 22.75 16.175 22.75 17.587 22.56C19.031 22.366 20.171 21.96 21.066 21.066C21.961 20.171 22.366 19.031 22.56 17.586C22.75 16.175 22.75 14.366 22.75 12.057V11.943C22.75 9.634 22.75 7.825 22.56 6.413C22.366 4.969 21.96 3.829 21.066 2.934C20.171 2.039 19.031 1.634 17.586 1.44C16.175 1.25 14.366 1.25 12.057 1.25H11.943ZM3.995 3.995C4.565 3.425 5.335 3.098 6.614 2.926C7.914 2.752 9.622 2.75 12 2.75C14.378 2.75 16.086 2.752 17.386 2.926C18.665 3.098 19.436 3.426 20.006 3.995C20.575 4.565 20.902 5.335 21.074 6.614C21.248 7.914 21.25 9.622 21.25 12C21.25 14.378 21.248 16.086 21.074 17.386C20.902 18.665 20.574 19.436 20.005 20.006C19.435 20.575 18.665 20.902 17.386 21.074C16.086 21.248 14.378 21.25 12 21.25C9.622 21.25 7.914 21.248 6.614 21.074C5.335 20.902 4.564 20.574 3.994 20.005C3.425 19.435 3.098 18.665 2.926 17.386C2.752 16.086 2.75 14.378 2.75 12C2.75 9.622 2.752 7.914 2.926 6.614C3.098 5.335 3.426 4.565 3.995 3.995Z" fill="#E6F3DB"/>
</svg>
