<svg width="24" height="24" viewBox="0 0 24 24" fill="none" xmlns="http://www.w3.org/2000/svg">
<path d="M13.7502 14.0187C13.7502 13.6047 14.0862 13.2687 14.5002 13.2687H15.1902L13.1772 11.2557C13.1539 11.2324 13.1263 11.214 13.096 11.2014C13.0656 11.1887 13.033 11.1823 13.0002 11.1823C12.9673 11.1823 12.9347 11.1887 12.9043 11.2014C12.874 11.214 12.8464 11.2324 12.8232 11.2557L11.2372 12.8417C10.909 13.1696 10.4641 13.3538 10.0002 13.3538C9.53624 13.3538 9.09131 13.1696 8.76315 12.8417L6.47015 10.5487C6.39647 10.48 6.33736 10.3972 6.29637 10.3052C6.25538 10.2132 6.23334 10.1139 6.23156 10.0132C6.22979 9.91253 6.24831 9.8125 6.28603 9.71911C6.32375 9.62572 6.3799 9.54089 6.45112 9.46967C6.52233 9.39845 6.60717 9.34231 6.70056 9.30458C6.79394 9.26686 6.89397 9.24834 6.99468 9.25012C7.09538 9.25189 7.19469 9.27393 7.28669 9.31493C7.37869 9.35592 7.46149 9.41502 7.53015 9.48871L9.82315 11.7817C9.84638 11.805 9.87396 11.8235 9.90434 11.8361C9.93471 11.8487 9.96727 11.8552 10.0002 11.8552C10.033 11.8552 10.0656 11.8487 10.096 11.8361C10.1263 11.8235 10.1539 11.805 10.1772 11.7817L11.7632 10.1957C12.0913 9.86779 12.5362 9.68358 13.0002 9.68358C13.4641 9.68358 13.909 9.86779 14.2372 10.1957L16.2502 12.2077V11.5187C16.2502 11.3198 16.3292 11.129 16.4698 10.9884C16.6105 10.8477 16.8012 10.7687 17.0002 10.7687C17.1991 10.7687 17.3898 10.8477 17.5305 10.9884C17.6711 11.129 17.7502 11.3198 17.7502 11.5187V14.0187C17.7502 14.2176 17.6711 14.4084 17.5305 14.549C17.3898 14.6897 17.1991 14.7687 17.0002 14.7687H14.5002C14.3012 14.7687 14.1105 14.6897 13.9698 14.549C13.8292 14.4084 13.7502 14.2176 13.7502 14.0187Z" fill="#E45553"/>
<path fill-rule="evenodd" clip-rule="evenodd" d="M11.943 1.25C9.634 1.25 7.825 1.25 6.413 1.44C4.969 1.634 3.829 2.04 2.934 2.934C2.039 3.829 1.634 4.969 1.44 6.414C1.25 7.825 1.25 9.634 1.25 11.943V12.057C1.25 14.366 1.25 16.175 1.44 17.587C1.634 19.031 2.04 20.171 2.934 21.066C3.829 21.961 4.969 22.366 6.414 22.56C7.825 22.75 9.634 22.75 11.943 22.75H12.057C14.366 22.75 16.175 22.75 17.587 22.56C19.031 22.366 20.171 21.96 21.066 21.066C21.961 20.171 22.366 19.031 22.56 17.586C22.75 16.175 22.75 14.366 22.75 12.057V11.943C22.75 9.634 22.75 7.825 22.56 6.413C22.366 4.969 21.96 3.829 21.066 2.934C20.171 2.039 19.031 1.634 17.586 1.44C16.175 1.25 14.366 1.25 12.057 1.25H11.943ZM3.995 3.995C4.565 3.425 5.335 3.098 6.614 2.926C7.914 2.752 9.622 2.75 12 2.75C14.378 2.75 16.086 2.752 17.386 2.926C18.665 3.098 19.436 3.426 20.006 3.995C20.575 4.565 20.902 5.335 21.074 6.614C21.248 7.914 21.25 9.622 21.25 12C21.25 14.378 21.248 16.086 21.074 17.386C20.902 18.665 20.574 19.436 20.005 20.006C19.435 20.575 18.665 20.902 17.386 21.074C16.086 21.248 14.378 21.25 12 21.25C9.622 21.25 7.914 21.248 6.614 21.074C5.335 20.902 4.564 20.574 3.994 20.005C3.425 19.435 3.098 18.665 2.926 17.386C2.752 16.086 2.75 14.378 2.75 12C2.75 9.622 2.752 7.914 2.926 6.614C3.098 5.335 3.426 4.565 3.995 3.995Z" fill="#FEF2ED"/>
</svg>
