<svg width="18" height="19" viewBox="0 0 18 19" fill="none" xmlns="http://www.w3.org/2000/svg">
<path d="M2.4375 13H1.125C0.926088 13 0.735322 13.079 0.59467 13.2197C0.454018 13.3603 0.375 13.5511 0.375 13.75V18.25C0.375 18.4489 0.454018 18.6397 0.59467 18.7803C0.735322 18.921 0.926088 19 1.125 19H2.4375C3.23315 19 3.99621 18.6839 4.55882 18.1213C5.12143 17.5587 5.4375 16.7956 5.4375 16C5.4375 15.2043 5.12143 14.4413 4.55882 13.8787C3.99621 13.3161 3.23315 13 2.4375 13ZM2.4375 17.5H1.875V14.5H2.4375C2.83532 14.5 3.21686 14.658 3.49816 14.9393C3.77946 15.2206 3.9375 15.6022 3.9375 16C3.9375 16.3978 3.77946 16.7794 3.49816 17.0607C3.21686 17.342 2.83532 17.5 2.4375 17.5ZM9.1875 13C7.64062 13 6.375 14.35 6.375 16C6.375 17.65 7.64062 19 9.1875 19C10.7344 19 12 17.65 12 16C12 14.35 10.7344 13 9.1875 13ZM9.1875 17.5C8.46562 17.5 7.875 16.825 7.875 16C7.875 15.175 8.46562 14.5 9.1875 14.5C9.90938 14.5 10.5 15.175 10.5 16C10.5 16.825 9.90938 17.5 9.1875 17.5ZM17.4281 17.2375C17.5623 17.3842 17.6328 17.5782 17.624 17.7769C17.6152 17.9755 17.5279 18.1626 17.3812 18.2969C16.8814 18.7458 16.2343 18.9959 15.5625 19C14.0156 19 12.75 17.65 12.75 16C12.75 14.35 14.0156 13 15.5625 13C16.2343 13.0041 16.8814 13.2542 17.3812 13.7031C17.5279 13.8374 17.6152 14.0244 17.624 14.2231C17.6328 14.4218 17.5623 14.6158 17.4281 14.7625C17.363 14.8369 17.2836 14.8974 17.1947 14.9406C17.1057 14.9838 17.009 15.0088 16.9103 15.0141C16.8116 15.0193 16.7128 15.0047 16.6198 14.9712C16.5268 14.9376 16.4414 14.8858 16.3688 14.8187C16.1486 14.6165 15.8614 14.503 15.5625 14.5C14.8406 14.5 14.25 15.175 14.25 16C14.25 16.825 14.8406 17.5 15.5625 17.5C15.8614 17.497 16.1486 17.3835 16.3688 17.1812C16.4414 17.1142 16.5268 17.0624 16.6198 17.0288C16.7128 16.9953 16.8116 16.9807 16.9103 16.9859C17.009 16.9912 17.1057 17.0161 17.1947 17.0593C17.2836 17.1026 17.363 17.1631 17.4281 17.2375ZM1.5 10.75C1.69891 10.75 1.88968 10.671 2.03033 10.5303C2.17098 10.3897 2.25 10.1989 2.25 10V1.75H10.5V6.25C10.5 6.44891 10.579 6.63967 10.7197 6.78033C10.8603 6.92098 11.0511 7 11.25 7H15.75V10C15.75 10.1989 15.829 10.3897 15.9697 10.5303C16.1103 10.671 16.3011 10.75 16.5 10.75C16.6989 10.75 16.8897 10.671 17.0303 10.5303C17.171 10.3897 17.25 10.1989 17.25 10V6.25C17.2509 6.15029 17.2314 6.05145 17.1927 5.95956C17.154 5.86766 17.097 5.78465 17.025 5.71562L11.7844 0.465622C11.6415 0.32633 11.4495 0.248872 11.25 0.249997H2.25C1.85218 0.249997 1.47064 0.408032 1.18934 0.689337C0.908035 0.970641 0.75 1.35217 0.75 1.75V10C0.75 10.1989 0.829018 10.3897 0.96967 10.5303C1.11032 10.671 1.30109 10.75 1.5 10.75ZM12 2.80937L14.6906 5.5H12V2.80937Z" fill="#006AFF"/>
</svg>
