<svg width="18" height="19" viewBox="0 0 18 19" fill="none" xmlns="http://www.w3.org/2000/svg">
<path d="M18 12.25C18 12.4489 17.921 12.6397 17.7803 12.7803C17.6397 12.921 17.4489 13 17.25 13H15V14.5H16.5C16.6989 14.5 16.8897 14.579 17.0303 14.7197C17.171 14.8603 17.25 15.0511 17.25 15.25C17.25 15.4489 17.171 15.6397 17.0303 15.7803C16.8897 15.921 16.6989 16 16.5 16H15V17.5C15 17.6989 14.921 17.8897 14.7803 18.0303C14.6397 18.171 14.4489 18.25 14.25 18.25C14.0511 18.25 13.8603 18.171 13.7197 18.0303C13.579 17.8897 13.5 17.6989 13.5 17.5V12.25C13.5 12.0511 13.579 11.8603 13.7197 11.7197C13.8603 11.579 14.0511 11.5 14.25 11.5H17.25C17.4489 11.5 17.6397 11.579 17.7803 11.7197C17.921 11.8603 18 12.0511 18 12.25ZM5.625 14.125C5.625 14.8212 5.34844 15.4889 4.85616 15.9812C4.36387 16.4734 3.69619 16.75 3 16.75H2.25V17.5C2.25 17.6989 2.17098 17.8897 2.03033 18.0303C1.88968 18.171 1.69891 18.25 1.5 18.25C1.30109 18.25 1.11032 18.171 0.96967 18.0303C0.829018 17.8897 0.75 17.6989 0.75 17.5V12.25C0.75 12.0511 0.829018 11.8603 0.96967 11.7197C1.11032 11.579 1.30109 11.5 1.5 11.5H3C3.69619 11.5 4.36387 11.7766 4.85616 12.2688C5.34844 12.7611 5.625 13.4288 5.625 14.125ZM4.125 14.125C4.125 13.8266 4.00647 13.5405 3.7955 13.3295C3.58452 13.1185 3.29837 13 3 13H2.25V15.25H3C3.29837 15.25 3.58452 15.1315 3.7955 14.9205C4.00647 14.7095 4.125 14.4234 4.125 14.125ZM12.375 14.875C12.375 15.7701 12.0194 16.6285 11.3865 17.2615C10.7535 17.8944 9.89511 18.25 9 18.25H7.5C7.30109 18.25 7.11032 18.171 6.96967 18.0303C6.82902 17.8897 6.75 17.6989 6.75 17.5V12.25C6.75 12.0511 6.82902 11.8603 6.96967 11.7197C7.11032 11.579 7.30109 11.5 7.5 11.5H9C9.89511 11.5 10.7535 11.8556 11.3865 12.4885C12.0194 13.1215 12.375 13.9799 12.375 14.875ZM10.875 14.875C10.875 14.3777 10.6775 13.9008 10.3258 13.5492C9.97419 13.1975 9.49728 13 9 13H8.25V16.75H9C9.49728 16.75 9.97419 16.5525 10.3258 16.2008C10.6775 15.8492 10.875 15.3723 10.875 14.875ZM0.75 8.5V1.75C0.75 1.35218 0.908035 0.970645 1.18934 0.68934C1.47064 0.408035 1.85218 0.25 2.25 0.25H11.25C11.3485 0.249923 11.4461 0.269257 11.5371 0.306898C11.6282 0.344539 11.7109 0.399749 11.7806 0.469375L17.0306 5.71938C17.1003 5.78908 17.1555 5.87182 17.1931 5.96286C17.2307 6.05391 17.2501 6.15148 17.25 6.25V8.5C17.25 8.69891 17.171 8.88968 17.0303 9.03033C16.8897 9.17098 16.6989 9.25 16.5 9.25C16.3011 9.25 16.1103 9.17098 15.9697 9.03033C15.829 8.88968 15.75 8.69891 15.75 8.5V7H11.25C11.0511 7 10.8603 6.92098 10.7197 6.78033C10.579 6.63968 10.5 6.44891 10.5 6.25V1.75H2.25V8.5C2.25 8.69891 2.17098 8.88968 2.03033 9.03033C1.88968 9.17098 1.69891 9.25 1.5 9.25C1.30109 9.25 1.11032 9.17098 0.96967 9.03033C0.829018 8.88968 0.75 8.69891 0.75 8.5ZM12 5.5H14.6897L12 2.81031V5.5Z" fill="#F68C2B"/>
</svg>
