<svg width="22" height="16" viewBox="0 0 22 16" fill="none" xmlns="http://www.w3.org/2000/svg">
<path d="M14.75 15.5H2C1.60218 15.5 1.22064 15.342 0.93934 15.0607C0.658035 14.7794 0.5 14.3978 0.5 14V2C0.5 1.60218 0.658035 1.22064 0.93934 0.93934C1.22064 0.658035 1.60218 0.5 2 0.5H14.75C15.1478 0.5 15.5294 0.658035 15.8107 0.93934C16.092 1.22064 16.25 1.60218 16.25 2V5.045L20.315 2.1425C20.4269 2.0628 20.5586 2.01538 20.6957 2.00543C20.8327 1.99547 20.9699 2.02336 21.0922 2.08605C21.2144 2.14874 21.3171 2.24382 21.3891 2.3609C21.461 2.47799 21.4994 2.61259 21.5 2.75V13.25C21.4994 13.3874 21.461 13.522 21.3891 13.6391C21.3171 13.7562 21.2144 13.8513 21.0922 13.9139C20.9699 13.9766 20.8327 14.0045 20.6957 13.9946C20.5586 13.9846 20.4269 13.9372 20.315 13.8575L16.25 10.955V14C16.25 14.3978 16.092 14.7794 15.8107 15.0607C15.5294 15.342 15.1478 15.5 14.75 15.5ZM2 2V14H14.75V9.5C14.7506 9.36259 14.789 9.22799 14.8609 9.1109C14.9329 8.99382 15.0356 8.89874 15.1578 8.83605C15.2801 8.77336 15.4173 8.74547 15.5543 8.75543C15.6914 8.76538 15.8231 8.8128 15.935 8.8925L20 11.795V4.205L15.935 7.1075C15.8231 7.1872 15.6914 7.23462 15.5543 7.24457C15.4173 7.25453 15.2801 7.22664 15.1578 7.16395C15.0356 7.10126 14.9329 7.00618 14.8609 6.8891C14.789 6.77201 14.7506 6.63741 14.75 6.5V2H2Z" fill="#E45553"/>
</svg>
