<svg width="18" height="20" viewBox="0 0 18 20" fill="none" xmlns="http://www.w3.org/2000/svg">
<path d="M11.625 18.25C11.625 18.4489 11.546 18.6397 11.4053 18.7803C11.2647 18.921 11.0739 19 10.875 19H8.25C8.05109 19 7.86032 18.921 7.71967 18.7803C7.57902 18.6397 7.5 18.4489 7.5 18.25V13.75C7.5 13.5511 7.57902 13.3603 7.71967 13.2197C7.86032 13.079 8.05109 13 8.25 13C8.44891 13 8.63968 13.079 8.78033 13.2197C8.92098 13.3603 9 13.5511 9 13.75V17.5H10.875C11.0739 17.5 11.2647 17.579 11.4053 17.7197C11.546 17.8603 11.625 18.0511 11.625 18.25ZM5.7 13.15C5.62121 13.0909 5.53155 13.0479 5.43614 13.0235C5.34073 12.999 5.24144 12.9936 5.14393 13.0075C5.04643 13.0215 4.95263 13.0545 4.86788 13.1046C4.78313 13.1548 4.70909 13.2212 4.65 13.3L3.5625 14.7531L2.475 13.3C2.35565 13.1409 2.17798 13.0357 1.98107 13.0075C1.78415 12.9794 1.58413 13.0306 1.425 13.15C1.26587 13.2693 1.16067 13.447 1.13254 13.6439C1.10441 13.8408 1.15565 14.0409 1.275 14.2L2.625 16L1.275 17.8C1.15565 17.9591 1.10441 18.1591 1.13254 18.3561C1.16067 18.553 1.26587 18.7306 1.425 18.85C1.55382 18.9493 1.71239 19.0021 1.875 19C1.99143 19 2.10627 18.9729 2.21041 18.9208C2.31455 18.8687 2.40514 18.7931 2.475 18.7L3.5625 17.2469L4.65 18.7C4.71986 18.7931 4.81045 18.8687 4.91459 18.9208C5.01873 18.9729 5.13357 19 5.25 19C5.41261 19.0021 5.57118 18.9493 5.7 18.85C5.85913 18.7306 5.96433 18.553 5.99246 18.3561C6.02059 18.1591 5.96935 17.9591 5.85 17.8L4.5 16L5.85 14.2C5.96935 14.0409 6.02059 13.8408 5.99246 13.6439C5.96433 13.447 5.85913 13.2693 5.7 13.15ZM17.25 6.26875V10C17.25 10.1989 17.171 10.3897 17.0303 10.5303C16.8897 10.671 16.6989 10.75 16.5 10.75C16.3011 10.75 16.1103 10.671 15.9697 10.5303C15.829 10.3897 15.75 10.1989 15.75 10V7H11.25C11.0511 7 10.8603 6.92098 10.7197 6.78033C10.579 6.63967 10.5 6.44891 10.5 6.25V1.75H2.25V10C2.25 10.1989 2.17098 10.3897 2.03033 10.5303C1.88968 10.671 1.69891 10.75 1.5 10.75C1.30109 10.75 1.11032 10.671 0.96967 10.5303C0.829018 10.3897 0.75 10.1989 0.75 10V1.75C0.75 1.35217 0.908035 0.970641 1.18934 0.689337C1.47064 0.408032 1.85218 0.249997 2.25 0.249997H11.25C11.4495 0.248872 11.6415 0.32633 11.7844 0.465622L17.025 5.71562C17.097 5.78465 17.154 5.86766 17.1927 5.95956C17.2314 6.05145 17.2509 6.15029 17.25 6.25V6.26875ZM12 5.5H14.6906L12 2.80937V5.5ZM15.1594 15.2312C14.8687 15.1562 14.3531 15.0156 14.25 14.8937V14.875C14.25 14.5656 14.475 14.4062 14.9062 14.4062C15.2413 14.4131 15.567 14.5173 15.8438 14.7062H15.8344C15.9704 14.8143 16.1388 14.8737 16.3125 14.875C16.5114 14.875 16.7022 14.796 16.8428 14.6553C16.9835 14.5147 17.0625 14.3239 17.0625 14.125C17.0643 14.0152 17.0407 13.9064 16.9936 13.8072C16.9464 13.708 16.877 13.621 16.7906 13.5531C16.2497 13.1381 15.588 12.911 14.9062 12.9062C13.6406 12.9062 12.75 13.7125 12.75 14.875C12.75 16.0375 13.9688 16.4687 14.775 16.6844C15.0938 16.7687 15.4313 16.8531 15.6375 16.975C15.8438 17.0969 15.75 17.0687 15.75 17.125C15.75 17.1812 15.75 17.5937 14.9062 17.5937C14.5712 17.5869 14.2455 17.4827 13.9688 17.2937H13.9781C13.8421 17.1857 13.6737 17.1263 13.5 17.125C13.3011 17.125 13.1103 17.204 12.9697 17.3447C12.829 17.4853 12.75 17.6761 12.75 17.875C12.7482 17.9848 12.7718 18.0936 12.8189 18.1928C12.8661 18.292 12.9355 18.379 13.0219 18.4469C13.5628 18.8619 14.2245 19.089 14.9062 19.0937C16.3687 19.0937 17.25 18.3531 17.25 17.125C17.25 15.8969 15.9375 15.4375 15.1594 15.2312Z" fill="#569C2B"/>
</svg>
